<mxfile host="app.diagrams.net" agent="Mozilla/5.0 (X11; Ubuntu; Linux x86_64; rv:141.0) Gecko/20100101 Firefox/141.0" version="28.0.6">
  <diagram name="Page-1" id="Y3pUBg2xaveTZ1VKXZcr">
    <mxGraphModel dx="623" dy="328" grid="1" gridSize="10" guides="1" tooltips="1" connect="1" arrows="1" fold="1" page="1" pageScale="1" pageWidth="595" pageHeight="842" math="1" shadow="0">
      <root>
        <mxCell id="0" />
        <mxCell id="1" parent="0" />
        <mxCell id="OUyjQR1rdF7uxZgqNvzY-29" value="" style="endArrow=block;html=1;rounded=0;entryX=0;entryY=0.5;entryDx=0;entryDy=0;endSize=1;endFill=1;strokeWidth=2;exitX=1;exitY=0.5;exitDx=0;exitDy=0;" edge="1" parent="1" source="OUyjQR1rdF7uxZgqNvzY-141" target="OUyjQR1rdF7uxZgqNvzY-410">
          <mxGeometry width="50" height="50" relative="1" as="geometry">
            <mxPoint x="217.6200000000001" y="363.9000000000001" as="sourcePoint" />
            <mxPoint x="295.38432" y="363.4438600000001" as="targetPoint" />
          </mxGeometry>
        </mxCell>
        <mxCell id="OUyjQR1rdF7uxZgqNvzY-64" value="" style="group" vertex="1" connectable="0" parent="1">
          <mxGeometry x="248.35999999999996" y="213.5000000000001" width="50.10000000000002" height="28" as="geometry" />
        </mxCell>
        <mxCell id="OUyjQR1rdF7uxZgqNvzY-65" value="&lt;font style=&quot;font-size: 8px;&quot;&gt;$$\text{CntIndx}$$&lt;/font&gt;" style="rounded=0;whiteSpace=wrap;html=1;" vertex="1" parent="OUyjQR1rdF7uxZgqNvzY-64">
          <mxGeometry width="50.1" height="28" as="geometry" />
        </mxCell>
        <mxCell id="OUyjQR1rdF7uxZgqNvzY-66" value="" style="triangle;whiteSpace=wrap;html=1;rotation=-90;" vertex="1" parent="OUyjQR1rdF7uxZgqNvzY-64">
          <mxGeometry x="37.080000000000155" y="15.509999999999991" width="7.95" height="15.57" as="geometry" />
        </mxCell>
        <mxCell id="OUyjQR1rdF7uxZgqNvzY-67" value="&lt;font style=&quot;font-size: 8px;&quot;&gt;$$\text{en}$$&lt;/font&gt;" style="text;html=1;align=center;verticalAlign=middle;whiteSpace=wrap;rounded=0;" vertex="1" parent="OUyjQR1rdF7uxZgqNvzY-64">
          <mxGeometry x="1.1368683772161603e-13" width="10.52" height="7.54" as="geometry" />
        </mxCell>
        <mxCell id="OUyjQR1rdF7uxZgqNvzY-88" value="" style="rounded=1;whiteSpace=wrap;html=1;strokeColor=#006EAF;strokeWidth=2;rotation=90;" vertex="1" parent="1">
          <mxGeometry x="382.43" y="-9.14" width="26.09" height="314.21" as="geometry" />
        </mxCell>
        <mxCell id="OUyjQR1rdF7uxZgqNvzY-89" value="" style="endArrow=block;html=1;rounded=0;exitX=0.977;exitY=0.796;exitDx=0;exitDy=0;entryX=0.25;entryY=0;entryDx=0;entryDy=0;endSize=1;endFill=1;strokeColor=#006EAF;exitPerimeter=0;" edge="1" parent="1" source="OUyjQR1rdF7uxZgqNvzY-88" target="OUyjQR1rdF7uxZgqNvzY-410">
          <mxGeometry width="50" height="50" relative="1" as="geometry">
            <mxPoint x="304.2600000000001" y="345.50000000000017" as="sourcePoint" />
            <mxPoint x="304.1299999999999" y="496.35" as="targetPoint" />
            <Array as="points" />
          </mxGeometry>
        </mxCell>
        <mxCell id="OUyjQR1rdF7uxZgqNvzY-104" value="&lt;font style=&quot;font-size: 8px;&quot;&gt;$$\text{Controller}$$&lt;/font&gt;" style="text;html=1;align=center;verticalAlign=middle;whiteSpace=wrap;rounded=0;rotation=0;" vertex="1" parent="1">
          <mxGeometry x="377.7199999999999" y="139.74" width="35.52" height="16.44" as="geometry" />
        </mxCell>
        <mxCell id="OUyjQR1rdF7uxZgqNvzY-105" value="" style="triangle;whiteSpace=wrap;html=1;rotation=0;strokeColor=#006EAF;" vertex="1" parent="1">
          <mxGeometry x="238.5200000000001" y="139.78000000000011" width="7.95" height="15.57" as="geometry" />
        </mxCell>
        <mxCell id="OUyjQR1rdF7uxZgqNvzY-106" value="" style="endArrow=block;html=1;rounded=0;endSize=1;endFill=1;" edge="1" parent="1">
          <mxGeometry width="50" height="50" relative="1" as="geometry">
            <mxPoint x="110" y="140" as="sourcePoint" />
            <mxPoint x="238.5200000000001" y="140.0000000000001" as="targetPoint" />
          </mxGeometry>
        </mxCell>
        <mxCell id="OUyjQR1rdF7uxZgqNvzY-107" value="&lt;font style=&quot;font-size: 8px;&quot;&gt;$$\text{Start}$$&lt;/font&gt;" style="text;html=1;align=center;verticalAlign=middle;whiteSpace=wrap;rounded=0;rotation=0;" vertex="1" parent="1">
          <mxGeometry x="203" y="126.06" width="35.52" height="16.44" as="geometry" />
        </mxCell>
        <mxCell id="OUyjQR1rdF7uxZgqNvzY-141" value="" style="rounded=0;whiteSpace=wrap;html=1;" vertex="1" parent="1">
          <mxGeometry x="112.38000000000011" y="299.22000000000014" width="46" height="132.8" as="geometry" />
        </mxCell>
        <mxCell id="OUyjQR1rdF7uxZgqNvzY-142" value="" style="triangle;whiteSpace=wrap;html=1;rotation=-90;" vertex="1" parent="1">
          <mxGeometry x="121.38000000000011" y="420.1600000000001" width="7.95" height="15.57" as="geometry" />
        </mxCell>
        <mxCell id="OUyjQR1rdF7uxZgqNvzY-145" style="edgeStyle=orthogonalEdgeStyle;rounded=0;orthogonalLoop=1;jettySize=auto;html=1;strokeWidth=2;endArrow=block;endFill=1;endSize=1;entryX=0.25;entryY=0;entryDx=0;entryDy=0;exitX=0;exitY=0.5;exitDx=0;exitDy=0;" edge="1" parent="1" source="OUyjQR1rdF7uxZgqNvzY-65" target="OUyjQR1rdF7uxZgqNvzY-141">
          <mxGeometry relative="1" as="geometry">
            <mxPoint x="777.5200000000001" y="211.0000000000001" as="targetPoint" />
            <Array as="points">
              <mxPoint x="230" y="227" />
              <mxPoint x="124" y="227" />
            </Array>
          </mxGeometry>
        </mxCell>
        <mxCell id="OUyjQR1rdF7uxZgqNvzY-146" value="&lt;font style=&quot;font-size: 8px;&quot;&gt;$$\text{Output BRAM}$$&lt;/font&gt;" style="text;html=1;align=center;verticalAlign=middle;whiteSpace=wrap;rounded=0;rotation=90;" vertex="1" parent="1">
          <mxGeometry x="100.00000000000011" y="350.2800000000001" width="70.76" height="16.44" as="geometry" />
        </mxCell>
        <mxCell id="OUyjQR1rdF7uxZgqNvzY-150" value="" style="rounded=0;whiteSpace=wrap;html=1;strokeWidth=1;" vertex="1" parent="1">
          <mxGeometry x="848" y="100" width="672" height="690" as="geometry" />
        </mxCell>
        <mxCell id="OUyjQR1rdF7uxZgqNvzY-151" style="edgeStyle=orthogonalEdgeStyle;rounded=0;orthogonalLoop=1;jettySize=auto;html=1;strokeWidth=2;endArrow=block;endFill=1;endSize=1;entryX=0.001;entryY=0.861;entryDx=0;entryDy=0;entryPerimeter=0;" edge="1" parent="1" source="OUyjQR1rdF7uxZgqNvzY-206" target="OUyjQR1rdF7uxZgqNvzY-363">
          <mxGeometry relative="1" as="geometry">
            <mxPoint x="900" y="219.5" as="targetPoint" />
            <Array as="points">
              <mxPoint x="1510" y="656.5" />
              <mxPoint x="1510" y="779.5" />
              <mxPoint x="910" y="779.5" />
              <mxPoint x="910" y="229.5" />
              <mxPoint x="930" y="229.5" />
            </Array>
          </mxGeometry>
        </mxCell>
        <mxCell id="OUyjQR1rdF7uxZgqNvzY-152" value="" style="endArrow=block;html=1;rounded=0;exitX=1;exitY=0.75;exitDx=0;exitDy=0;entryX=0;entryY=1;entryDx=0;entryDy=0;endSize=1;endFill=1;strokeWidth=2;" edge="1" parent="1" target="OUyjQR1rdF7uxZgqNvzY-243">
          <mxGeometry width="50" height="50" relative="1" as="geometry">
            <mxPoint x="969.5" y="692.615" as="sourcePoint" />
            <mxPoint x="1037" y="749.5" as="targetPoint" />
            <Array as="points">
              <mxPoint x="977" y="692.5" />
            </Array>
          </mxGeometry>
        </mxCell>
        <mxCell id="OUyjQR1rdF7uxZgqNvzY-153" value="" style="endArrow=block;html=1;rounded=0;exitX=1;exitY=0.25;exitDx=0;exitDy=0;entryX=0;entryY=0;entryDx=0;entryDy=0;endSize=1;endFill=1;strokeWidth=2;" edge="1" parent="1" target="OUyjQR1rdF7uxZgqNvzY-243">
          <mxGeometry width="50" height="50" relative="1" as="geometry">
            <mxPoint x="969.5" y="583.845" as="sourcePoint" />
            <mxPoint x="1047" y="559.5" as="targetPoint" />
            <Array as="points">
              <mxPoint x="977" y="583.5" />
            </Array>
          </mxGeometry>
        </mxCell>
        <mxCell id="OUyjQR1rdF7uxZgqNvzY-154" value="" style="rounded=0;whiteSpace=wrap;html=1;" vertex="1" parent="1">
          <mxGeometry x="864.8399999999999" y="531.96" width="111.5" height="217.54" as="geometry" />
        </mxCell>
        <mxCell id="OUyjQR1rdF7uxZgqNvzY-155" value="" style="rounded=0;whiteSpace=wrap;html=1;" vertex="1" parent="1">
          <mxGeometry x="1249.5" y="510.96000000000004" width="111.5" height="217.54" as="geometry" />
        </mxCell>
        <mxCell id="OUyjQR1rdF7uxZgqNvzY-156" value="" style="rounded=0;whiteSpace=wrap;html=1;" vertex="1" parent="1">
          <mxGeometry x="1246.5" y="513.96" width="111.5" height="217.54" as="geometry" />
        </mxCell>
        <mxCell id="OUyjQR1rdF7uxZgqNvzY-157" value="" style="rounded=0;whiteSpace=wrap;html=1;" vertex="1" parent="1">
          <mxGeometry x="1243.5" y="516.96" width="111.5" height="217.54" as="geometry" />
        </mxCell>
        <mxCell id="OUyjQR1rdF7uxZgqNvzY-158" value="" style="rounded=0;whiteSpace=wrap;html=1;" vertex="1" parent="1">
          <mxGeometry x="1240.5" y="519.96" width="111.5" height="217.54" as="geometry" />
        </mxCell>
        <mxCell id="OUyjQR1rdF7uxZgqNvzY-159" value="" style="rounded=0;whiteSpace=wrap;html=1;" vertex="1" parent="1">
          <mxGeometry x="1237.5" y="522.96" width="111.5" height="217.54" as="geometry" />
        </mxCell>
        <mxCell id="OUyjQR1rdF7uxZgqNvzY-160" value="" style="rounded=0;whiteSpace=wrap;html=1;" vertex="1" parent="1">
          <mxGeometry x="1234.5" y="525.96" width="111.5" height="217.54" as="geometry" />
        </mxCell>
        <mxCell id="OUyjQR1rdF7uxZgqNvzY-161" value="" style="rounded=0;whiteSpace=wrap;html=1;" vertex="1" parent="1">
          <mxGeometry x="1231.5" y="528.96" width="111.5" height="217.54" as="geometry" />
        </mxCell>
        <mxCell id="OUyjQR1rdF7uxZgqNvzY-162" value="" style="rounded=0;whiteSpace=wrap;html=1;" vertex="1" parent="1">
          <mxGeometry x="1107.84" y="511.96000000000004" width="99.71" height="216.54" as="geometry" />
        </mxCell>
        <mxCell id="OUyjQR1rdF7uxZgqNvzY-163" value="" style="rounded=0;whiteSpace=wrap;html=1;" vertex="1" parent="1">
          <mxGeometry x="1104.84" y="514.96" width="99.71" height="216.54" as="geometry" />
        </mxCell>
        <mxCell id="OUyjQR1rdF7uxZgqNvzY-164" value="" style="endArrow=block;html=1;rounded=0;endFill=1;strokeWidth=2;exitX=1.004;exitY=0.568;exitDx=0;exitDy=0;exitPerimeter=0;entryX=0;entryY=0.5;entryDx=0;entryDy=0;startFill=0;endSize=1;" edge="1" parent="1" source="OUyjQR1rdF7uxZgqNvzY-165" target="OUyjQR1rdF7uxZgqNvzY-189">
          <mxGeometry width="50" height="50" relative="1" as="geometry">
            <mxPoint x="1202.6102899999998" y="640.8100000000002" as="sourcePoint" />
            <mxPoint x="1311.4615" y="641.5599999999997" as="targetPoint" />
          </mxGeometry>
        </mxCell>
        <mxCell id="OUyjQR1rdF7uxZgqNvzY-165" value="" style="rounded=0;whiteSpace=wrap;html=1;" vertex="1" parent="1">
          <mxGeometry x="1102.34" y="517.96" width="99.71" height="216.54" as="geometry" />
        </mxCell>
        <mxCell id="OUyjQR1rdF7uxZgqNvzY-166" value="" style="rounded=0;whiteSpace=wrap;html=1;" vertex="1" parent="1">
          <mxGeometry x="1099.34" y="520.96" width="99.71" height="216.54" as="geometry" />
        </mxCell>
        <mxCell id="OUyjQR1rdF7uxZgqNvzY-167" value="" style="rounded=0;whiteSpace=wrap;html=1;" vertex="1" parent="1">
          <mxGeometry x="1096.34" y="523.96" width="99.71" height="216.54" as="geometry" />
        </mxCell>
        <mxCell id="OUyjQR1rdF7uxZgqNvzY-168" value="" style="rounded=0;whiteSpace=wrap;html=1;" vertex="1" parent="1">
          <mxGeometry x="1093.34" y="526.96" width="99.71" height="216.54" as="geometry" />
        </mxCell>
        <mxCell id="OUyjQR1rdF7uxZgqNvzY-169" value="" style="rounded=0;whiteSpace=wrap;html=1;" vertex="1" parent="1">
          <mxGeometry x="1090.34" y="529.96" width="99.71" height="216.54" as="geometry" />
        </mxCell>
        <mxCell id="OUyjQR1rdF7uxZgqNvzY-170" value="" style="endArrow=block;html=1;rounded=0;exitX=0.713;exitY=1.004;exitDx=0;exitDy=0;exitPerimeter=0;entryX=-0.002;entryY=0.45;entryDx=0;entryDy=0;entryPerimeter=0;endSize=1;endFill=1;strokeWidth=2;" edge="1" parent="1" source="OUyjQR1rdF7uxZgqNvzY-207">
          <mxGeometry width="50" height="50" relative="1" as="geometry">
            <mxPoint x="1060" y="671.5" as="sourcePoint" />
            <mxPoint x="1087.14058" y="621.403" as="targetPoint" />
          </mxGeometry>
        </mxCell>
        <mxCell id="OUyjQR1rdF7uxZgqNvzY-171" value="" style="endArrow=block;html=1;rounded=0;exitX=0.764;exitY=1.013;exitDx=0;exitDy=0;exitPerimeter=0;entryX=-0.005;entryY=0.335;entryDx=0;entryDy=0;entryPerimeter=0;endSize=1;endFill=1;strokeWidth=2;" edge="1" parent="1">
          <mxGeometry width="50" height="50" relative="1" as="geometry">
            <mxPoint x="1052" y="631.5" as="sourcePoint" />
            <mxPoint x="1087" y="631.5" as="targetPoint" />
          </mxGeometry>
        </mxCell>
        <mxCell id="OUyjQR1rdF7uxZgqNvzY-172" value="" style="endArrow=block;html=1;rounded=0;exitX=0.764;exitY=1.013;exitDx=0;exitDy=0;exitPerimeter=0;entryX=-0.005;entryY=0.335;entryDx=0;entryDy=0;entryPerimeter=0;endSize=1;endFill=1;strokeWidth=2;" edge="1" parent="1">
          <mxGeometry width="50" height="50" relative="1" as="geometry">
            <mxPoint x="1052" y="641.5" as="sourcePoint" />
            <mxPoint x="1087" y="641.5" as="targetPoint" />
          </mxGeometry>
        </mxCell>
        <mxCell id="OUyjQR1rdF7uxZgqNvzY-173" value="" style="endArrow=block;html=1;rounded=0;exitX=0.764;exitY=1.013;exitDx=0;exitDy=0;exitPerimeter=0;entryX=-0.005;entryY=0.335;entryDx=0;entryDy=0;entryPerimeter=0;endSize=1;endFill=1;strokeWidth=2;" edge="1" parent="1">
          <mxGeometry width="50" height="50" relative="1" as="geometry">
            <mxPoint x="1052" y="651.5" as="sourcePoint" />
            <mxPoint x="1087" y="651.5" as="targetPoint" />
          </mxGeometry>
        </mxCell>
        <mxCell id="OUyjQR1rdF7uxZgqNvzY-174" value="" style="endArrow=block;html=1;rounded=0;exitX=0.764;exitY=1.013;exitDx=0;exitDy=0;exitPerimeter=0;entryX=-0.005;entryY=0.335;entryDx=0;entryDy=0;entryPerimeter=0;endSize=1;endFill=1;strokeWidth=2;" edge="1" parent="1">
          <mxGeometry width="50" height="50" relative="1" as="geometry">
            <mxPoint x="1052" y="661.5" as="sourcePoint" />
            <mxPoint x="1087" y="661.5" as="targetPoint" />
          </mxGeometry>
        </mxCell>
        <mxCell id="OUyjQR1rdF7uxZgqNvzY-175" value="" style="endArrow=block;html=1;rounded=0;exitX=0.764;exitY=1.013;exitDx=0;exitDy=0;exitPerimeter=0;entryX=-0.005;entryY=0.335;entryDx=0;entryDy=0;entryPerimeter=0;endSize=1;endFill=1;strokeWidth=2;" edge="1" parent="1">
          <mxGeometry width="50" height="50" relative="1" as="geometry">
            <mxPoint x="1052" y="671.5" as="sourcePoint" />
            <mxPoint x="1087" y="671.5" as="targetPoint" />
          </mxGeometry>
        </mxCell>
        <mxCell id="OUyjQR1rdF7uxZgqNvzY-176" value="" style="endArrow=block;html=1;rounded=0;exitX=0.764;exitY=1.013;exitDx=0;exitDy=0;exitPerimeter=0;entryX=-0.005;entryY=0.335;entryDx=0;entryDy=0;entryPerimeter=0;endSize=1;endFill=1;strokeWidth=2;" edge="1" parent="1">
          <mxGeometry width="50" height="50" relative="1" as="geometry">
            <mxPoint x="1052" y="681.5" as="sourcePoint" />
            <mxPoint x="1087" y="681.5" as="targetPoint" />
          </mxGeometry>
        </mxCell>
        <mxCell id="OUyjQR1rdF7uxZgqNvzY-177" value="" style="endArrow=block;html=1;rounded=0;exitX=0.764;exitY=1.013;exitDx=0;exitDy=0;exitPerimeter=0;entryX=-0.005;entryY=0.335;entryDx=0;entryDy=0;entryPerimeter=0;endSize=1;endFill=1;strokeWidth=2;" edge="1" parent="1">
          <mxGeometry width="50" height="50" relative="1" as="geometry">
            <mxPoint x="1052" y="691.5" as="sourcePoint" />
            <mxPoint x="1087" y="691.5" as="targetPoint" />
          </mxGeometry>
        </mxCell>
        <mxCell id="OUyjQR1rdF7uxZgqNvzY-178" value="" style="rounded=0;whiteSpace=wrap;html=1;" vertex="1" parent="1">
          <mxGeometry x="1087.34" y="532.96" width="99.71" height="216.54" as="geometry" />
        </mxCell>
        <mxCell id="OUyjQR1rdF7uxZgqNvzY-179" value="" style="rounded=1;whiteSpace=wrap;html=1;" vertex="1" parent="1">
          <mxGeometry x="1096.48" y="652.96" width="81.42" height="20" as="geometry" />
        </mxCell>
        <mxCell id="OUyjQR1rdF7uxZgqNvzY-180" value="" style="rounded=1;whiteSpace=wrap;html=1;" vertex="1" parent="1">
          <mxGeometry x="1096.48" y="632.96" width="81.42" height="20" as="geometry" />
        </mxCell>
        <mxCell id="OUyjQR1rdF7uxZgqNvzY-181" value="" style="rounded=1;whiteSpace=wrap;html=1;" vertex="1" parent="1">
          <mxGeometry x="1096.48" y="612.96" width="81.42" height="20" as="geometry" />
        </mxCell>
        <mxCell id="OUyjQR1rdF7uxZgqNvzY-182" value="" style="rounded=1;whiteSpace=wrap;html=1;" vertex="1" parent="1">
          <mxGeometry x="1096.48" y="592.96" width="81.42" height="20" as="geometry" />
        </mxCell>
        <mxCell id="OUyjQR1rdF7uxZgqNvzY-183" value="" style="rounded=1;whiteSpace=wrap;html=1;" vertex="1" parent="1">
          <mxGeometry x="1096.48" y="572.96" width="81.42" height="20" as="geometry" />
        </mxCell>
        <mxCell id="OUyjQR1rdF7uxZgqNvzY-184" value="" style="rounded=1;whiteSpace=wrap;html=1;" vertex="1" parent="1">
          <mxGeometry x="1096.48" y="552.96" width="81.42" height="20" as="geometry" />
        </mxCell>
        <mxCell id="OUyjQR1rdF7uxZgqNvzY-185" value="" style="endArrow=none;dashed=1;html=1;dashPattern=1 3;strokeWidth=2;rounded=0;" edge="1" parent="1">
          <mxGeometry width="50" height="50" relative="1" as="geometry">
            <mxPoint x="1136.77" y="679.5699999999999" as="sourcePoint" />
            <mxPoint x="1136.77" y="699.5699999999999" as="targetPoint" />
          </mxGeometry>
        </mxCell>
        <mxCell id="OUyjQR1rdF7uxZgqNvzY-186" value="" style="rounded=1;whiteSpace=wrap;html=1;" vertex="1" parent="1">
          <mxGeometry x="1096.48" y="705.73" width="81.42" height="20" as="geometry" />
        </mxCell>
        <mxCell id="OUyjQR1rdF7uxZgqNvzY-187" value="&lt;font style=&quot;font-size: 8px;&quot;&gt;$$\text{en}$$&lt;/font&gt;" style="text;html=1;align=center;verticalAlign=middle;whiteSpace=wrap;rounded=0;" vertex="1" parent="1">
          <mxGeometry x="1098.32" y="539.19" width="10.52" height="7.54" as="geometry" />
        </mxCell>
        <mxCell id="OUyjQR1rdF7uxZgqNvzY-188" value="&lt;font style=&quot;font-size: 8px;&quot;&gt;$$\text{cs}$$&lt;/font&gt;" style="text;html=1;align=center;verticalAlign=middle;whiteSpace=wrap;rounded=0;" vertex="1" parent="1">
          <mxGeometry x="1166.5" y="539.19" width="9.1" height="7.54" as="geometry" />
        </mxCell>
        <mxCell id="OUyjQR1rdF7uxZgqNvzY-189" value="" style="rounded=0;whiteSpace=wrap;html=1;" vertex="1" parent="1">
          <mxGeometry x="1228.5" y="531.96" width="111.5" height="217.54" as="geometry" />
        </mxCell>
        <mxCell id="OUyjQR1rdF7uxZgqNvzY-190" value="&lt;font style=&quot;font-size: 8px;&quot;&gt;$$\text{start}$$&lt;/font&gt;" style="text;html=1;align=center;verticalAlign=middle;whiteSpace=wrap;rounded=0;" vertex="1" parent="1">
          <mxGeometry x="1237" y="532.96" width="30" height="20" as="geometry" />
        </mxCell>
        <mxCell id="OUyjQR1rdF7uxZgqNvzY-191" value="" style="shape=trapezoid;perimeter=trapezoidPerimeter;whiteSpace=wrap;html=1;fixedSize=1;rotation=-90;fillColor=#FFFFFF;strokeWidth=1;" vertex="1" parent="1">
          <mxGeometry x="1328.8" y="642.1300000000001" width="131.22" height="28.44" as="geometry" />
        </mxCell>
        <mxCell id="OUyjQR1rdF7uxZgqNvzY-192" value="" style="endArrow=block;html=1;rounded=0;endFill=1;strokeWidth=2;exitX=0.997;exitY=0.072;exitDx=0;exitDy=0;exitPerimeter=0;entryX=0.44;entryY=-0.018;entryDx=0;entryDy=0;entryPerimeter=0;endSize=1;" edge="1" parent="1">
          <mxGeometry width="50" height="50" relative="1" as="geometry">
            <mxPoint x="1340.0044999999998" y="692.1499999999996" as="sourcePoint" />
            <mxPoint x="1379.68808" y="692.1272000000004" as="targetPoint" />
          </mxGeometry>
        </mxCell>
        <mxCell id="OUyjQR1rdF7uxZgqNvzY-193" value="" style="endArrow=block;html=1;rounded=0;endFill=1;strokeWidth=2;exitX=0.997;exitY=0.072;exitDx=0;exitDy=0;exitPerimeter=0;entryX=0.471;entryY=-0.019;entryDx=0;entryDy=0;entryPerimeter=0;endSize=1;" edge="1" parent="1">
          <mxGeometry width="50" height="50" relative="1" as="geometry">
            <mxPoint x="1343.0044999999998" y="682.1299999999997" as="sourcePoint" />
            <mxPoint x="1379.65964" y="682.1804800000004" as="targetPoint" />
          </mxGeometry>
        </mxCell>
        <mxCell id="OUyjQR1rdF7uxZgqNvzY-194" value="" style="endArrow=block;html=1;rounded=0;endFill=1;strokeWidth=2;exitX=1.001;exitY=0.483;exitDx=0;exitDy=0;exitPerimeter=0;entryX=0.471;entryY=-0.019;entryDx=0;entryDy=0;entryPerimeter=0;endSize=1;" edge="1" parent="1">
          <mxGeometry width="50" height="50" relative="1" as="geometry">
            <mxPoint x="1346.1385" y="672.0300000000002" as="sourcePoint" />
            <mxPoint x="1379.65964" y="671.9504800000004" as="targetPoint" />
          </mxGeometry>
        </mxCell>
        <mxCell id="OUyjQR1rdF7uxZgqNvzY-195" value="" style="endArrow=block;html=1;rounded=0;endFill=1;strokeWidth=2;exitX=1.001;exitY=0.447;exitDx=0;exitDy=0;exitPerimeter=0;entryX=0.471;entryY=-0.019;entryDx=0;entryDy=0;entryPerimeter=0;endSize=1;" edge="1" parent="1">
          <mxGeometry width="50" height="50" relative="1" as="geometry">
            <mxPoint x="1349.6385" y="661.5900000000001" as="sourcePoint" />
            <mxPoint x="1379.51964" y="661.7204800000004" as="targetPoint" />
          </mxGeometry>
        </mxCell>
        <mxCell id="OUyjQR1rdF7uxZgqNvzY-196" value="" style="endArrow=block;html=1;rounded=0;endFill=1;strokeWidth=2;exitX=1.001;exitY=0.447;exitDx=0;exitDy=0;exitPerimeter=0;entryX=0.578;entryY=-0.018;entryDx=0;entryDy=0;entryPerimeter=0;endSize=1;" edge="1" parent="1">
          <mxGeometry width="50" height="50" relative="1" as="geometry">
            <mxPoint x="1352.5" y="651.23" as="sourcePoint" />
            <mxPoint x="1379.68808" y="651.3966400000004" as="targetPoint" />
          </mxGeometry>
        </mxCell>
        <mxCell id="OUyjQR1rdF7uxZgqNvzY-197" value="" style="endArrow=block;html=1;rounded=0;endFill=1;strokeWidth=2;exitX=1.001;exitY=0.616;exitDx=0;exitDy=0;exitPerimeter=0;entryX=0.61;entryY=-0.016;entryDx=0;entryDy=0;entryPerimeter=0;endSize=1;" edge="1" parent="1">
          <mxGeometry width="50" height="50" relative="1" as="geometry">
            <mxPoint x="1355.1385" y="641.9646399999999" as="sourcePoint" />
            <mxPoint x="1379.74496" y="642.0968000000003" as="targetPoint" />
          </mxGeometry>
        </mxCell>
        <mxCell id="OUyjQR1rdF7uxZgqNvzY-198" value="" style="endArrow=block;html=1;rounded=0;endFill=1;strokeWidth=2;exitX=1.001;exitY=0.586;exitDx=0;exitDy=0;exitPerimeter=0;entryX=0.648;entryY=-0.017;entryDx=0;entryDy=0;entryPerimeter=0;endSize=1;" edge="1" parent="1">
          <mxGeometry width="50" height="50" relative="1" as="geometry">
            <mxPoint x="1358.1385" y="632.4384400000001" as="sourcePoint" />
            <mxPoint x="1379.71652" y="632.6782400000002" as="targetPoint" />
          </mxGeometry>
        </mxCell>
        <mxCell id="OUyjQR1rdF7uxZgqNvzY-199" value="" style="endArrow=block;html=1;rounded=0;endFill=1;strokeWidth=2;exitX=1.002;exitY=0.556;exitDx=0;exitDy=0;exitPerimeter=0;entryX=0.684;entryY=-0.017;entryDx=0;entryDy=0;entryPerimeter=0;endSize=1;" edge="1" parent="1">
          <mxGeometry width="50" height="50" relative="1" as="geometry">
            <mxPoint x="1361.277" y="622.9122400000001" as="sourcePoint" />
            <mxPoint x="1379.71652" y="622.9659200000001" as="targetPoint" />
          </mxGeometry>
        </mxCell>
        <mxCell id="OUyjQR1rdF7uxZgqNvzY-200" value="" style="endArrow=block;html=1;rounded=0;endFill=1;strokeWidth=2;exitX=1.004;exitY=0.727;exitDx=0;exitDy=0;exitPerimeter=0;entryX=-0.002;entryY=0.729;entryDx=0;entryDy=0;entryPerimeter=0;startFill=0;endSize=1;" edge="1" parent="1" source="OUyjQR1rdF7uxZgqNvzY-178" target="OUyjQR1rdF7uxZgqNvzY-189">
          <mxGeometry width="50" height="50" relative="1" as="geometry">
            <mxPoint x="1187.54855" y="690.31" as="sourcePoint" />
            <mxPoint x="1311.4695" y="690.8499999999999" as="targetPoint" />
          </mxGeometry>
        </mxCell>
        <mxCell id="OUyjQR1rdF7uxZgqNvzY-201" value="" style="endArrow=block;html=1;rounded=0;endFill=1;strokeWidth=2;exitX=1.001;exitY=0.701;exitDx=0;exitDy=0;exitPerimeter=0;startFill=0;endSize=1;entryX=-0.003;entryY=0.688;entryDx=0;entryDy=0;entryPerimeter=0;" edge="1" parent="1" source="OUyjQR1rdF7uxZgqNvzY-169" target="OUyjQR1rdF7uxZgqNvzY-189">
          <mxGeometry width="50" height="50" relative="1" as="geometry">
            <mxPoint x="1190.68855" y="681.6547" as="sourcePoint" />
            <mxPoint x="1230" y="681.5" as="targetPoint" />
          </mxGeometry>
        </mxCell>
        <mxCell id="OUyjQR1rdF7uxZgqNvzY-202" value="" style="endArrow=block;html=1;rounded=0;endFill=1;strokeWidth=2;exitX=1.004;exitY=0.667;exitDx=0;exitDy=0;exitPerimeter=0;entryX=-0.005;entryY=0.642;entryDx=0;entryDy=0;entryPerimeter=0;startFill=0;endSize=1;" edge="1" parent="1" source="OUyjQR1rdF7uxZgqNvzY-168" target="OUyjQR1rdF7uxZgqNvzY-189">
          <mxGeometry width="50" height="50" relative="1" as="geometry">
            <mxPoint x="1193.7097099999999" y="671.3300000000004" as="sourcePoint" />
            <mxPoint x="1311.5" y="671.69" as="targetPoint" />
          </mxGeometry>
        </mxCell>
        <mxCell id="OUyjQR1rdF7uxZgqNvzY-203" value="" style="endArrow=block;html=1;rounded=0;endFill=1;strokeWidth=2;exitX=1.003;exitY=0.676;exitDx=0;exitDy=0;exitPerimeter=0;entryX=-0.004;entryY=0.596;entryDx=0;entryDy=0;entryPerimeter=0;startFill=0;endSize=1;" edge="1" parent="1" target="OUyjQR1rdF7uxZgqNvzY-189">
          <mxGeometry width="50" height="50" relative="1" as="geometry">
            <mxPoint x="1196.34913" y="661.3410400000002" as="sourcePoint" />
            <mxPoint x="1311.5" y="661.8899999999999" as="targetPoint" />
          </mxGeometry>
        </mxCell>
        <mxCell id="OUyjQR1rdF7uxZgqNvzY-204" value="" style="endArrow=block;html=1;rounded=0;endFill=1;strokeWidth=2;exitX=1.024;exitY=0.564;exitDx=0;exitDy=0;exitPerimeter=0;entryX=-0.003;entryY=0.456;entryDx=0;entryDy=0;entryPerimeter=0;startFill=0;startSize=6;endSize=1;" edge="1" parent="1" target="OUyjQR1rdF7uxZgqNvzY-189">
          <mxGeometry width="50" height="50" relative="1" as="geometry">
            <mxPoint x="1204.44304" y="631.0885600000001" as="sourcePoint" />
            <mxPoint x="1311.3615" y="631.48" as="targetPoint" />
          </mxGeometry>
        </mxCell>
        <mxCell id="OUyjQR1rdF7uxZgqNvzY-205" value="" style="endArrow=block;html=1;rounded=0;endFill=1;strokeWidth=2;exitX=1.004;exitY=0.55;exitDx=0;exitDy=0;exitPerimeter=0;entryX=-0.002;entryY=0.415;entryDx=0;entryDy=0;entryPerimeter=0;startFill=0;endSize=1;" edge="1" parent="1" target="OUyjQR1rdF7uxZgqNvzY-189">
          <mxGeometry width="50" height="50" relative="1" as="geometry">
            <mxPoint x="1207.94884" y="622.057" as="sourcePoint" />
            <mxPoint x="1311.5" y="621.1399999999999" as="targetPoint" />
          </mxGeometry>
        </mxCell>
        <mxCell id="OUyjQR1rdF7uxZgqNvzY-206" value="&lt;h5&gt;&lt;font face=&quot;Helvetica&quot; style=&quot;font-size: 8px;&quot;&gt;$$\text{Cmp}$$&lt;/font&gt;&lt;/h5&gt;" style="rounded=0;whiteSpace=wrap;html=1;rotation=0;" vertex="1" parent="1">
          <mxGeometry x="1432" y="590.96" width="61" height="130" as="geometry" />
        </mxCell>
        <mxCell id="OUyjQR1rdF7uxZgqNvzY-207" value="" style="shape=trapezoid;perimeter=trapezoidPerimeter;whiteSpace=wrap;html=1;fixedSize=1;rotation=-90;fillColor=#FFFFFF;strokeWidth=1;" vertex="1" parent="1">
          <mxGeometry x="986" y="634.74" width="131.22" height="28.44" as="geometry" />
        </mxCell>
        <mxCell id="OUyjQR1rdF7uxZgqNvzY-208" value="" style="endArrow=block;html=1;rounded=0;exitX=0.5;exitY=1;exitDx=0;exitDy=0;entryX=0;entryY=0.5;entryDx=0;entryDy=0;endSize=1;endFill=1;strokeWidth=2;" edge="1" parent="1" source="OUyjQR1rdF7uxZgqNvzY-191" target="OUyjQR1rdF7uxZgqNvzY-206">
          <mxGeometry width="50" height="50" relative="1" as="geometry">
            <mxPoint x="1451" y="681.5" as="sourcePoint" />
            <mxPoint x="1501" y="631.5" as="targetPoint" />
          </mxGeometry>
        </mxCell>
        <mxCell id="OUyjQR1rdF7uxZgqNvzY-209" value="" style="shape=trapezoid;perimeter=trapezoidPerimeter;whiteSpace=wrap;html=1;fixedSize=1;rotation=-180;fillColor=#FFFFFF;strokeWidth=1;" vertex="1" parent="1">
          <mxGeometry x="1073.1499999999999" y="478.5" width="60.87" height="28.44" as="geometry" />
        </mxCell>
        <mxCell id="OUyjQR1rdF7uxZgqNvzY-210" value="" style="shape=trapezoid;perimeter=trapezoidPerimeter;whiteSpace=wrap;html=1;fixedSize=1;rotation=-180;fillColor=#FFFFFF;strokeWidth=1;" vertex="1" parent="1">
          <mxGeometry x="1142.11" y="478.5" width="62.65" height="28.44" as="geometry" />
        </mxCell>
        <mxCell id="OUyjQR1rdF7uxZgqNvzY-211" value="&lt;font style=&quot;font-size: 8px;&quot;&gt;$$\text{RBSrc}$$&lt;/font&gt;" style="text;html=1;align=center;verticalAlign=middle;whiteSpace=wrap;rounded=0;" vertex="1" parent="1">
          <mxGeometry x="1155.68" y="478.4999999999999" width="35.52" height="16.44" as="geometry" />
        </mxCell>
        <mxCell id="OUyjQR1rdF7uxZgqNvzY-212" value="&lt;font style=&quot;font-size: 8px;&quot;&gt;$$\text{RSrc}$$&lt;/font&gt;" style="text;html=1;align=center;verticalAlign=middle;whiteSpace=wrap;rounded=0;" vertex="1" parent="1">
          <mxGeometry x="1085.82" y="478.4999999999999" width="35.52" height="16.44" as="geometry" />
        </mxCell>
        <mxCell id="OUyjQR1rdF7uxZgqNvzY-213" style="edgeStyle=orthogonalEdgeStyle;rounded=0;orthogonalLoop=1;jettySize=auto;html=1;entryX=0.168;entryY=0.002;entryDx=0;entryDy=0;entryPerimeter=0;endSize=1;endArrow=block;endFill=1;strokeWidth=2;" edge="1" parent="1" source="OUyjQR1rdF7uxZgqNvzY-209" target="OUyjQR1rdF7uxZgqNvzY-178">
          <mxGeometry relative="1" as="geometry" />
        </mxCell>
        <mxCell id="OUyjQR1rdF7uxZgqNvzY-214" style="edgeStyle=orthogonalEdgeStyle;rounded=0;orthogonalLoop=1;jettySize=auto;html=1;entryX=0.829;entryY=0.012;entryDx=0;entryDy=0;entryPerimeter=0;endSize=1;endArrow=block;endFill=1;strokeWidth=2;" edge="1" parent="1" source="OUyjQR1rdF7uxZgqNvzY-210" target="OUyjQR1rdF7uxZgqNvzY-169">
          <mxGeometry relative="1" as="geometry" />
        </mxCell>
        <mxCell id="OUyjQR1rdF7uxZgqNvzY-215" value="" style="ellipse;whiteSpace=wrap;html=1;aspect=fixed;fillColor=#F0F0F0;" vertex="1" parent="1">
          <mxGeometry x="1247.8846153846152" y="571.9652631578948" width="21.16315789473683" height="21.16315789473683" as="geometry" />
        </mxCell>
        <mxCell id="OUyjQR1rdF7uxZgqNvzY-216" value="" style="endArrow=blockThin;html=1;rounded=0;exitX=1;exitY=0.5;exitDx=0;exitDy=0;entryX=0;entryY=0;entryDx=0;entryDy=0;endFill=1;endSize=1;" edge="1" parent="1" target="OUyjQR1rdF7uxZgqNvzY-215">
          <mxGeometry width="50" height="50" relative="1" as="geometry">
            <mxPoint x="1232.5" y="563.5" as="sourcePoint" />
            <mxPoint x="1309.423076923077" y="538.1042105263159" as="targetPoint" />
            <Array as="points">
              <mxPoint x="1247.8846153846152" y="563.5" />
            </Array>
          </mxGeometry>
        </mxCell>
        <mxCell id="OUyjQR1rdF7uxZgqNvzY-217" value="" style="endArrow=blockThin;html=1;rounded=0;entryX=0;entryY=1;entryDx=0;entryDy=0;exitX=1;exitY=0.5;exitDx=0;exitDy=0;endFill=1;endSize=1;" edge="1" parent="1" target="OUyjQR1rdF7uxZgqNvzY-215">
          <mxGeometry width="50" height="50" relative="1" as="geometry">
            <mxPoint x="1232.5" y="605.8263157894737" as="sourcePoint" />
            <mxPoint x="1263.2692307692307" y="614.2915789473684" as="targetPoint" />
            <Array as="points">
              <mxPoint x="1247.8846153846152" y="605.8263157894737" />
            </Array>
          </mxGeometry>
        </mxCell>
        <mxCell id="OUyjQR1rdF7uxZgqNvzY-218" value="&lt;font style=&quot;font-size: 14px;&quot;&gt;$$\geq$$&lt;/font&gt;" style="text;html=1;align=center;verticalAlign=middle;whiteSpace=wrap;rounded=0;" vertex="1" parent="1">
          <mxGeometry x="1252.6538461538462" y="575.4800701754386" width="11.538461538461535" height="12.6978947368421" as="geometry" />
        </mxCell>
        <mxCell id="OUyjQR1rdF7uxZgqNvzY-219" style="edgeStyle=orthogonalEdgeStyle;rounded=0;orthogonalLoop=1;jettySize=auto;html=1;exitX=1.013;exitY=0.599;exitDx=0;exitDy=0;entryX=0;entryY=0.5;entryDx=0;entryDy=0;endArrow=blockThin;endFill=1;curved=0;endSize=1;exitPerimeter=0;" edge="1" parent="1">
          <mxGeometry relative="1" as="geometry">
            <mxPoint x="1269.322894331984" y="584.6419947368422" as="sourcePoint" />
            <mxPoint x="1282.5" y="584.6631578947367" as="targetPoint" />
          </mxGeometry>
        </mxCell>
        <mxCell id="OUyjQR1rdF7uxZgqNvzY-220" value="" style="ellipse;whiteSpace=wrap;html=1;aspect=fixed;fillColor=#F0F0F0;" vertex="1" parent="1">
          <mxGeometry x="1247.8846153846152" y="631.2221052631578" width="21.16315789473683" height="21.16315789473683" as="geometry" />
        </mxCell>
        <mxCell id="OUyjQR1rdF7uxZgqNvzY-221" value="" style="endArrow=blockThin;html=1;rounded=0;exitX=1;exitY=0.5;exitDx=0;exitDy=0;entryX=0;entryY=0;entryDx=0;entryDy=0;endFill=1;endSize=1;" edge="1" parent="1" target="OUyjQR1rdF7uxZgqNvzY-220">
          <mxGeometry width="50" height="50" relative="1" as="geometry">
            <mxPoint x="1232.5" y="622.7568421052631" as="sourcePoint" />
            <mxPoint x="1309.423076923077" y="597.3610526315789" as="targetPoint" />
            <Array as="points">
              <mxPoint x="1247.8846153846152" y="622.7568421052631" />
            </Array>
          </mxGeometry>
        </mxCell>
        <mxCell id="OUyjQR1rdF7uxZgqNvzY-222" value="" style="endArrow=blockThin;html=1;rounded=0;entryX=0;entryY=1;entryDx=0;entryDy=0;exitX=1;exitY=0.5;exitDx=0;exitDy=0;endFill=1;endSize=1;" edge="1" parent="1" target="OUyjQR1rdF7uxZgqNvzY-220">
          <mxGeometry width="50" height="50" relative="1" as="geometry">
            <mxPoint x="1232.5" y="665.0831578947368" as="sourcePoint" />
            <mxPoint x="1263.2692307692307" y="673.5484210526315" as="targetPoint" />
            <Array as="points">
              <mxPoint x="1247.8846153846152" y="665.0831578947368" />
            </Array>
          </mxGeometry>
        </mxCell>
        <mxCell id="OUyjQR1rdF7uxZgqNvzY-223" value="&lt;font style=&quot;font-size: 14px;&quot;&gt;$$\geq$$&lt;/font&gt;" style="text;html=1;align=center;verticalAlign=middle;whiteSpace=wrap;rounded=0;" vertex="1" parent="1">
          <mxGeometry x="1252.6538461538462" y="634.7369122807017" width="11.538461538461535" height="12.6978947368421" as="geometry" />
        </mxCell>
        <mxCell id="OUyjQR1rdF7uxZgqNvzY-224" style="edgeStyle=orthogonalEdgeStyle;rounded=0;orthogonalLoop=1;jettySize=auto;html=1;exitX=1.004;exitY=0.599;exitDx=0;exitDy=0;entryX=0;entryY=0.5;entryDx=0;entryDy=0;endArrow=blockThin;endFill=1;endSize=1;exitPerimeter=0;" edge="1" parent="1">
          <mxGeometry relative="1" as="geometry">
            <mxPoint x="1269.1324259109313" y="643.8988368421051" as="sourcePoint" />
            <mxPoint x="1282.5" y="643.9200000000001" as="targetPoint" />
          </mxGeometry>
        </mxCell>
        <mxCell id="OUyjQR1rdF7uxZgqNvzY-225" value="" style="rounded=0;whiteSpace=wrap;html=1;" vertex="1" parent="1">
          <mxGeometry x="1282.5" y="567.7326315789472" width="15.384615384615378" height="33.86105263157893" as="geometry" />
        </mxCell>
        <mxCell id="OUyjQR1rdF7uxZgqNvzY-226" value="" style="triangle;whiteSpace=wrap;html=1;rotation=-90;" vertex="1" parent="1">
          <mxGeometry x="1286.3461538461538" y="593.1284210526317" width="7.692307692307689" height="8.465263157894732" as="geometry" />
        </mxCell>
        <mxCell id="OUyjQR1rdF7uxZgqNvzY-227" value="" style="rounded=0;whiteSpace=wrap;html=1;" vertex="1" parent="1">
          <mxGeometry x="1282.5" y="626.9894736842105" width="15.384615384615378" height="33.86105263157893" as="geometry" />
        </mxCell>
        <mxCell id="OUyjQR1rdF7uxZgqNvzY-228" value="" style="triangle;whiteSpace=wrap;html=1;rotation=-90;" vertex="1" parent="1">
          <mxGeometry x="1286.3461538461538" y="652.3852631578948" width="7.692307692307689" height="8.465263157894732" as="geometry" />
        </mxCell>
        <mxCell id="OUyjQR1rdF7uxZgqNvzY-229" value="" style="ellipse;whiteSpace=wrap;html=1;aspect=fixed;fillColor=#F0F0F0;" vertex="1" parent="1">
          <mxGeometry x="1247.8846153846152" y="690.4789473684211" width="21.16315789473683" height="21.16315789473683" as="geometry" />
        </mxCell>
        <mxCell id="OUyjQR1rdF7uxZgqNvzY-230" value="" style="endArrow=blockThin;html=1;rounded=0;exitX=1;exitY=0.5;exitDx=0;exitDy=0;entryX=0;entryY=0;entryDx=0;entryDy=0;endFill=1;endSize=1;" edge="1" parent="1" target="OUyjQR1rdF7uxZgqNvzY-229">
          <mxGeometry width="50" height="50" relative="1" as="geometry">
            <mxPoint x="1232.5" y="682.0136842105262" as="sourcePoint" />
            <mxPoint x="1309.423076923077" y="656.6178947368419" as="targetPoint" />
            <Array as="points">
              <mxPoint x="1247.8846153846152" y="682.0136842105262" />
            </Array>
          </mxGeometry>
        </mxCell>
        <mxCell id="OUyjQR1rdF7uxZgqNvzY-231" value="" style="endArrow=blockThin;html=1;rounded=0;entryX=0;entryY=1;entryDx=0;entryDy=0;exitX=1;exitY=0.5;exitDx=0;exitDy=0;endFill=1;endSize=1;" edge="1" parent="1" target="OUyjQR1rdF7uxZgqNvzY-229">
          <mxGeometry width="50" height="50" relative="1" as="geometry">
            <mxPoint x="1232.5" y="724.3399999999999" as="sourcePoint" />
            <mxPoint x="1263.2692307692307" y="732.8052631578946" as="targetPoint" />
            <Array as="points">
              <mxPoint x="1247.8846153846152" y="724.3399999999999" />
            </Array>
          </mxGeometry>
        </mxCell>
        <mxCell id="OUyjQR1rdF7uxZgqNvzY-232" value="&lt;font style=&quot;font-size: 14px;&quot;&gt;$$\geq$$&lt;/font&gt;" style="text;html=1;align=center;verticalAlign=middle;whiteSpace=wrap;rounded=0;" vertex="1" parent="1">
          <mxGeometry x="1252.6538461538462" y="693.9937543859648" width="11.538461538461535" height="12.6978947368421" as="geometry" />
        </mxCell>
        <mxCell id="OUyjQR1rdF7uxZgqNvzY-233" style="edgeStyle=orthogonalEdgeStyle;rounded=0;orthogonalLoop=1;jettySize=auto;html=1;exitX=1.021;exitY=0.604;exitDx=0;exitDy=0;entryX=0;entryY=0.5;entryDx=0;entryDy=0;endArrow=blockThin;endFill=1;curved=0;endSize=1;exitPerimeter=0;" edge="1" parent="1">
          <mxGeometry relative="1" as="geometry">
            <mxPoint x="1268.4921995951418" y="703.2614947368422" as="sourcePoint" />
            <mxPoint x="1281.5" y="703.176842105263" as="targetPoint" />
          </mxGeometry>
        </mxCell>
        <mxCell id="OUyjQR1rdF7uxZgqNvzY-234" value="" style="rounded=0;whiteSpace=wrap;html=1;" vertex="1" parent="1">
          <mxGeometry x="1282.5" y="686.2463157894736" width="15.384615384615378" height="33.86105263157893" as="geometry" />
        </mxCell>
        <mxCell id="OUyjQR1rdF7uxZgqNvzY-235" value="" style="triangle;whiteSpace=wrap;html=1;rotation=-90;" vertex="1" parent="1">
          <mxGeometry x="1286.3461538461538" y="711.6421052631576" width="7.692307692307689" height="8.465263157894732" as="geometry" />
        </mxCell>
        <mxCell id="OUyjQR1rdF7uxZgqNvzY-236" value="" style="ellipse;whiteSpace=wrap;html=1;aspect=fixed;fillColor=#F0F0F0;" vertex="1" parent="1">
          <mxGeometry x="1309.423076923077" y="601.5936842105262" width="21.16315789473683" height="21.16315789473683" as="geometry" />
        </mxCell>
        <mxCell id="OUyjQR1rdF7uxZgqNvzY-237" value="&lt;font style=&quot;font-size: 14px;&quot;&gt;$$\geq$$&lt;/font&gt;" style="text;html=1;align=center;verticalAlign=middle;whiteSpace=wrap;rounded=0;" vertex="1" parent="1">
          <mxGeometry x="1314.1923076923076" y="605.1084912280703" width="11.538461538461535" height="12.6978947368421" as="geometry" />
        </mxCell>
        <mxCell id="OUyjQR1rdF7uxZgqNvzY-238" value="" style="endArrow=blockThin;html=1;rounded=0;exitX=1;exitY=0.5;exitDx=0;exitDy=0;entryX=0;entryY=0;entryDx=0;entryDy=0;endFill=1;endSize=1;" edge="1" parent="1" source="OUyjQR1rdF7uxZgqNvzY-225" target="OUyjQR1rdF7uxZgqNvzY-236">
          <mxGeometry width="50" height="50" relative="1" as="geometry">
            <mxPoint x="1313.2692307692307" y="614.2915789473684" as="sourcePoint" />
            <mxPoint x="1351.7307692307693" y="571.9652631578948" as="targetPoint" />
            <Array as="points">
              <mxPoint x="1305.576923076923" y="584.6631578947369" />
            </Array>
          </mxGeometry>
        </mxCell>
        <mxCell id="OUyjQR1rdF7uxZgqNvzY-239" value="" style="endArrow=blockThin;html=1;rounded=0;exitX=1;exitY=0.5;exitDx=0;exitDy=0;entryX=0;entryY=1;entryDx=0;entryDy=0;endFill=1;endSize=1;" edge="1" parent="1" source="OUyjQR1rdF7uxZgqNvzY-227" target="OUyjQR1rdF7uxZgqNvzY-236">
          <mxGeometry width="50" height="50" relative="1" as="geometry">
            <mxPoint x="1336.3461538461536" y="682.0136842105262" as="sourcePoint" />
            <mxPoint x="1374.8076923076924" y="639.6873684210527" as="targetPoint" />
            <Array as="points">
              <mxPoint x="1305.576923076923" y="643.9199999999998" />
            </Array>
          </mxGeometry>
        </mxCell>
        <mxCell id="OUyjQR1rdF7uxZgqNvzY-240" value="" style="endArrow=none;dashed=1;html=1;dashPattern=1 3;strokeWidth=2;rounded=0;" edge="1" parent="1">
          <mxGeometry width="50" height="50" relative="1" as="geometry">
            <mxPoint x="1270.96" y="682.7191228070176" as="sourcePoint" />
            <mxPoint x="1270.96" y="664.3777192982457" as="targetPoint" />
          </mxGeometry>
        </mxCell>
        <mxCell id="OUyjQR1rdF7uxZgqNvzY-241" value="" style="endArrow=none;dashed=1;html=1;dashPattern=1 3;strokeWidth=2;rounded=0;" edge="1" parent="1">
          <mxGeometry width="50" height="50" relative="1" as="geometry">
            <mxPoint x="1314.19" y="662.7463736842105" as="sourcePoint" />
            <mxPoint x="1334.1899999999998" y="662.7188615789473" as="targetPoint" />
          </mxGeometry>
        </mxCell>
        <mxCell id="OUyjQR1rdF7uxZgqNvzY-242" value="" style="endArrow=blockThin;html=1;rounded=0;exitX=1;exitY=0.5;exitDx=0;exitDy=0;entryX=0;entryY=1;entryDx=0;entryDy=0;endFill=1;endSize=1;" edge="1" parent="1">
          <mxGeometry width="50" height="50" relative="1" as="geometry">
            <mxPoint x="1297.8799999999999" y="703.454079473684" as="sourcePoint" />
            <mxPoint x="1312.8799999999999" y="679.6102549122807" as="targetPoint" />
            <Array as="points">
              <mxPoint x="1305.456923076923" y="703.5937563157893" />
            </Array>
          </mxGeometry>
        </mxCell>
        <mxCell id="OUyjQR1rdF7uxZgqNvzY-243" value="" style="ellipse;whiteSpace=wrap;html=1;aspect=fixed;" vertex="1" parent="1">
          <mxGeometry x="985.6799999999998" y="621.51" width="32.17" height="32.17" as="geometry" />
        </mxCell>
        <mxCell id="OUyjQR1rdF7uxZgqNvzY-244" value="" style="endArrow=block;html=1;rounded=0;exitX=1;exitY=0.5;exitDx=0;exitDy=0;entryX=0.587;entryY=-0.022;entryDx=0;entryDy=0;entryPerimeter=0;endSize=1;endFill=1;strokeWidth=2;" edge="1" parent="1" source="OUyjQR1rdF7uxZgqNvzY-243" target="OUyjQR1rdF7uxZgqNvzY-207">
          <mxGeometry width="50" height="50" relative="1" as="geometry">
            <mxPoint x="1022" y="637.72" as="sourcePoint" />
            <mxPoint x="1040" y="637.72" as="targetPoint" />
          </mxGeometry>
        </mxCell>
        <mxCell id="OUyjQR1rdF7uxZgqNvzY-245" value="" style="endArrow=none;html=1;rounded=0;" edge="1" parent="1">
          <mxGeometry width="50" height="50" relative="1" as="geometry">
            <mxPoint x="991.76" y="638.3600000000001" as="sourcePoint" />
            <mxPoint x="1011.76" y="638.3600000000001" as="targetPoint" />
          </mxGeometry>
        </mxCell>
        <mxCell id="OUyjQR1rdF7uxZgqNvzY-246" style="edgeStyle=orthogonalEdgeStyle;rounded=0;orthogonalLoop=1;jettySize=auto;html=1;entryX=0.25;entryY=1;entryDx=0;entryDy=0;endSize=1;strokeWidth=2;endArrow=block;endFill=1;" edge="1" parent="1" source="OUyjQR1rdF7uxZgqNvzY-247" target="OUyjQR1rdF7uxZgqNvzY-210">
          <mxGeometry relative="1" as="geometry" />
        </mxCell>
        <mxCell id="OUyjQR1rdF7uxZgqNvzY-247" value="&lt;font style=&quot;font-size: 8px;&quot;&gt;$$0$$&lt;/font&gt;" style="rounded=0;whiteSpace=wrap;html=1;" vertex="1" parent="1">
          <mxGeometry x="1183.71" y="436.5" width="11.34" height="17" as="geometry" />
        </mxCell>
        <mxCell id="OUyjQR1rdF7uxZgqNvzY-248" style="edgeStyle=orthogonalEdgeStyle;rounded=0;orthogonalLoop=1;jettySize=auto;html=1;entryX=0.75;entryY=1;entryDx=0;entryDy=0;endSize=1;endArrow=block;endFill=1;strokeWidth=2;" edge="1" parent="1" source="OUyjQR1rdF7uxZgqNvzY-249" target="OUyjQR1rdF7uxZgqNvzY-210">
          <mxGeometry relative="1" as="geometry" />
        </mxCell>
        <mxCell id="OUyjQR1rdF7uxZgqNvzY-249" value="&lt;font style=&quot;font-size: 8px;&quot;&gt;$$\text{DecRB}$$&lt;/font&gt;" style="rounded=0;whiteSpace=wrap;html=1;" vertex="1" parent="1">
          <mxGeometry x="1142.11" y="399.5" width="50.1" height="28" as="geometry" />
        </mxCell>
        <mxCell id="OUyjQR1rdF7uxZgqNvzY-250" style="edgeStyle=orthogonalEdgeStyle;rounded=0;orthogonalLoop=1;jettySize=auto;html=1;entryX=0.25;entryY=1;entryDx=0;entryDy=0;endSize=1;strokeWidth=2;endArrow=block;endFill=1;" edge="1" parent="1" source="OUyjQR1rdF7uxZgqNvzY-251">
          <mxGeometry relative="1" as="geometry">
            <mxPoint x="1119" y="478.5" as="targetPoint" />
          </mxGeometry>
        </mxCell>
        <mxCell id="OUyjQR1rdF7uxZgqNvzY-251" value="&lt;font style=&quot;font-size: 8px;&quot;&gt;$$0$$&lt;/font&gt;" style="rounded=0;whiteSpace=wrap;html=1;" vertex="1" parent="1">
          <mxGeometry x="1113.71" y="436.5" width="11.34" height="17" as="geometry" />
        </mxCell>
        <mxCell id="OUyjQR1rdF7uxZgqNvzY-252" style="edgeStyle=orthogonalEdgeStyle;rounded=0;orthogonalLoop=1;jettySize=auto;html=1;entryX=0.75;entryY=1;entryDx=0;entryDy=0;endSize=1;endArrow=block;endFill=1;strokeWidth=2;" edge="1" parent="1" source="OUyjQR1rdF7uxZgqNvzY-253">
          <mxGeometry relative="1" as="geometry">
            <mxPoint x="1088" y="478.5" as="targetPoint" />
          </mxGeometry>
        </mxCell>
        <mxCell id="OUyjQR1rdF7uxZgqNvzY-253" value="&lt;font style=&quot;font-size: 8px;&quot;&gt;$$\text{DecR}$$&lt;/font&gt;" style="rounded=0;whiteSpace=wrap;html=1;" vertex="1" parent="1">
          <mxGeometry x="1072.11" y="399.5" width="50.1" height="28" as="geometry" />
        </mxCell>
        <mxCell id="OUyjQR1rdF7uxZgqNvzY-254" style="edgeStyle=orthogonalEdgeStyle;rounded=0;orthogonalLoop=1;jettySize=auto;html=1;entryX=0.5;entryY=0;entryDx=0;entryDy=0;endSize=1;endArrow=block;endFill=1;strokeWidth=2;" edge="1" parent="1" source="OUyjQR1rdF7uxZgqNvzY-255" target="OUyjQR1rdF7uxZgqNvzY-253">
          <mxGeometry relative="1" as="geometry" />
        </mxCell>
        <mxCell id="OUyjQR1rdF7uxZgqNvzY-255" value="" style="shape=trapezoid;perimeter=trapezoidPerimeter;whiteSpace=wrap;html=1;fixedSize=1;rotation=-180;fillColor=#FFFFFF;strokeWidth=1;flipH=0;flipV=0;direction=east;" vertex="1" parent="1">
          <mxGeometry x="1066.72" y="351.5" width="60.87" height="28.44" as="geometry" />
        </mxCell>
        <mxCell id="OUyjQR1rdF7uxZgqNvzY-256" value="&lt;font style=&quot;font-size: 8px;&quot;&gt;$$\text{DecRSrc}$$&lt;/font&gt;" style="text;html=1;align=center;verticalAlign=middle;whiteSpace=wrap;rounded=0;" vertex="1" parent="1">
          <mxGeometry x="1075.74" y="354.5" width="42.84" height="12.56" as="geometry" />
        </mxCell>
        <mxCell id="OUyjQR1rdF7uxZgqNvzY-257" value="" style="endArrow=block;html=1;rounded=0;endFill=1;strokeWidth=2;exitX=0.974;exitY=0.616;exitDx=0;exitDy=0;exitPerimeter=0;startFill=0;endSize=1;entryX=-0.003;entryY=0.547;entryDx=0;entryDy=0;entryPerimeter=0;" edge="1" parent="1" source="OUyjQR1rdF7uxZgqNvzY-165" target="OUyjQR1rdF7uxZgqNvzY-189">
          <mxGeometry width="50" height="50" relative="1" as="geometry">
            <mxPoint x="1200.00884" y="651.3500000000004" as="sourcePoint" />
            <mxPoint x="1230" y="651.5" as="targetPoint" />
          </mxGeometry>
        </mxCell>
        <mxCell id="OUyjQR1rdF7uxZgqNvzY-258" value="" style="shape=trapezoid;perimeter=trapezoidPerimeter;whiteSpace=wrap;html=1;fixedSize=1;rotation=180;fillColor=#FFFFFF;strokeWidth=1;" vertex="1" parent="1">
          <mxGeometry x="1219" y="443.505" width="75.65" height="28.44" as="geometry" />
        </mxCell>
        <mxCell id="OUyjQR1rdF7uxZgqNvzY-259" value="" style="group;rotation=90;" vertex="1" connectable="0" parent="1">
          <mxGeometry x="1242" y="457.505" width="32.22" height="62.09" as="geometry" />
        </mxCell>
        <mxCell id="OUyjQR1rdF7uxZgqNvzY-260" value="" style="rounded=0;whiteSpace=wrap;html=1;rotation=90;" vertex="1" parent="OUyjQR1rdF7uxZgqNvzY-259">
          <mxGeometry x="6.11" y="3.8899999999999997" width="20" height="62.09" as="geometry" />
        </mxCell>
        <mxCell id="OUyjQR1rdF7uxZgqNvzY-261" value="" style="triangle;whiteSpace=wrap;html=1;rotation=0;" vertex="1" parent="OUyjQR1rdF7uxZgqNvzY-259">
          <mxGeometry x="-14.98" y="28.15" width="17.09" height="13.57" as="geometry" />
        </mxCell>
        <mxCell id="OUyjQR1rdF7uxZgqNvzY-262" value="&lt;font style=&quot;font-size: 8px;&quot;&gt;$$\text{TrigMTreeSrc}$$&lt;/font&gt;" style="text;html=1;align=center;verticalAlign=middle;whiteSpace=wrap;rounded=0;rotation=0;" vertex="1" parent="1">
          <mxGeometry x="1226.82" y="442.505" width="60" height="18" as="geometry" />
        </mxCell>
        <mxCell id="OUyjQR1rdF7uxZgqNvzY-263" value="" style="endArrow=block;html=1;rounded=0;exitX=0.5;exitY=0;exitDx=0;exitDy=0;entryX=0.006;entryY=0.525;entryDx=0;entryDy=0;entryPerimeter=0;endSize=1;endFill=1;strokeWidth=2;" edge="1" parent="1" source="OUyjQR1rdF7uxZgqNvzY-258" target="OUyjQR1rdF7uxZgqNvzY-260">
          <mxGeometry width="50" height="50" relative="1" as="geometry">
            <mxPoint x="1215" y="473.505" as="sourcePoint" />
            <mxPoint x="1265" y="523.505" as="targetPoint" />
          </mxGeometry>
        </mxCell>
        <mxCell id="OUyjQR1rdF7uxZgqNvzY-264" style="edgeStyle=orthogonalEdgeStyle;rounded=0;orthogonalLoop=1;jettySize=auto;html=1;entryX=0.25;entryY=1;entryDx=0;entryDy=0;endSize=1;strokeWidth=2;endArrow=block;endFill=1;" edge="1" parent="1" source="OUyjQR1rdF7uxZgqNvzY-265">
          <mxGeometry relative="1" as="geometry">
            <mxPoint x="1274.48" y="443.5" as="targetPoint" />
          </mxGeometry>
        </mxCell>
        <mxCell id="OUyjQR1rdF7uxZgqNvzY-265" value="&lt;font style=&quot;font-size: 8px;&quot;&gt;$$0$$&lt;/font&gt;" style="rounded=0;whiteSpace=wrap;html=1;" vertex="1" parent="1">
          <mxGeometry x="1269.19" y="400.5" width="11.34" height="17" as="geometry" />
        </mxCell>
        <mxCell id="OUyjQR1rdF7uxZgqNvzY-266" value="" style="endArrow=block;html=1;rounded=0;entryX=0.75;entryY=1;entryDx=0;entryDy=0;strokeWidth=2;endFill=1;endSize=1;" edge="1" parent="1" target="OUyjQR1rdF7uxZgqNvzY-258">
          <mxGeometry width="50" height="50" relative="1" as="geometry">
            <mxPoint x="1168" y="432.5" as="sourcePoint" />
            <mxPoint x="1330" y="432.5" as="targetPoint" />
            <Array as="points">
              <mxPoint x="1238" y="432.5" />
            </Array>
          </mxGeometry>
        </mxCell>
        <mxCell id="OUyjQR1rdF7uxZgqNvzY-267" value="" style="endArrow=block;html=1;rounded=0;exitX=0.997;exitY=0.522;exitDx=0;exitDy=0;exitPerimeter=0;entryX=0.65;entryY=-0.047;entryDx=0;entryDy=0;entryPerimeter=0;strokeWidth=2;endFill=1;endSize=1;" edge="1" parent="1" source="OUyjQR1rdF7uxZgqNvzY-260" target="OUyjQR1rdF7uxZgqNvzY-190">
          <mxGeometry width="50" height="50" relative="1" as="geometry">
            <mxPoint x="1310" y="539.5" as="sourcePoint" />
            <mxPoint x="1360" y="489.5" as="targetPoint" />
          </mxGeometry>
        </mxCell>
        <mxCell id="OUyjQR1rdF7uxZgqNvzY-268" style="edgeStyle=orthogonalEdgeStyle;rounded=0;orthogonalLoop=1;jettySize=auto;html=1;exitX=1;exitY=0;exitDx=0;exitDy=0;entryX=0;entryY=0.25;entryDx=0;entryDy=0;endArrow=blockThin;endFill=1;endSize=1;" edge="1" parent="1" source="OUyjQR1rdF7uxZgqNvzY-269" target="OUyjQR1rdF7uxZgqNvzY-274">
          <mxGeometry relative="1" as="geometry" />
        </mxCell>
        <mxCell id="OUyjQR1rdF7uxZgqNvzY-269" value="" style="ellipse;whiteSpace=wrap;html=1;aspect=fixed;fillColor=#F0F0F0;" vertex="1" parent="1">
          <mxGeometry x="883.6716046824822" y="577.1651653442891" width="20.84912244352723" height="20.84912244352723" as="geometry" />
        </mxCell>
        <mxCell id="OUyjQR1rdF7uxZgqNvzY-270" value="" style="endArrow=blockThin;html=1;rounded=0;exitX=1;exitY=0.5;exitDx=0;exitDy=0;entryX=0;entryY=0;entryDx=0;entryDy=0;endFill=1;endSize=1;" edge="1" parent="1" target="OUyjQR1rdF7uxZgqNvzY-269">
          <mxGeometry width="50" height="50" relative="1" as="geometry">
            <mxPoint x="869" y="569.5" as="sourcePoint" />
            <mxPoint x="942.3580234124106" y="546.5045039671327" as="targetPoint" />
            <Array as="points">
              <mxPoint x="883.6716046824822" y="569.5" />
            </Array>
          </mxGeometry>
        </mxCell>
        <mxCell id="OUyjQR1rdF7uxZgqNvzY-271" value="" style="endArrow=blockThin;html=1;rounded=0;entryX=0;entryY=1;entryDx=0;entryDy=0;exitX=1;exitY=0.5;exitDx=0;exitDy=0;endFill=1;endSize=1;" edge="1" parent="1" target="OUyjQR1rdF7uxZgqNvzY-269">
          <mxGeometry width="50" height="50" relative="1" as="geometry">
            <mxPoint x="869" y="607.8258267214458" as="sourcePoint" />
            <mxPoint x="898.3432093649642" y="615.4909920657346" as="targetPoint" />
            <Array as="points">
              <mxPoint x="883.6716046824822" y="607.8258267214458" />
            </Array>
          </mxGeometry>
        </mxCell>
        <mxCell id="OUyjQR1rdF7uxZgqNvzY-272" value="&lt;font style=&quot;font-size: 14px;&quot;&gt;$$\geq$$&lt;/font&gt;" style="text;html=1;align=center;verticalAlign=middle;whiteSpace=wrap;rounded=0;" vertex="1" parent="1">
          <mxGeometry x="888.2398088677096" y="580.958476852506" width="11.003703511861593" height="11.497748016433675" as="geometry" />
        </mxCell>
        <mxCell id="OUyjQR1rdF7uxZgqNvzY-273" value="" style="group" vertex="1" connectable="0" parent="1">
          <mxGeometry x="913.0148140474462" y="573.3325826721446" width="14.671604682482126" height="30.660661377156465" as="geometry" />
        </mxCell>
        <mxCell id="OUyjQR1rdF7uxZgqNvzY-274" value="" style="rounded=0;whiteSpace=wrap;html=1;" vertex="1" parent="OUyjQR1rdF7uxZgqNvzY-273">
          <mxGeometry width="14.671604682482126" height="30.660661377156465" as="geometry" />
        </mxCell>
        <mxCell id="OUyjQR1rdF7uxZgqNvzY-275" value="" style="triangle;whiteSpace=wrap;html=1;rotation=-90;" vertex="1" parent="OUyjQR1rdF7uxZgqNvzY-273">
          <mxGeometry x="3.6679011706205316" y="22.995496032867347" width="7.335802341241063" height="7.665165344289116" as="geometry" />
        </mxCell>
        <mxCell id="OUyjQR1rdF7uxZgqNvzY-276" style="edgeStyle=orthogonalEdgeStyle;rounded=0;orthogonalLoop=1;jettySize=auto;html=1;exitX=1;exitY=0.5;exitDx=0;exitDy=0;endArrow=blockThin;endFill=1;curved=0;endSize=1;" edge="1" parent="1" source="OUyjQR1rdF7uxZgqNvzY-277">
          <mxGeometry relative="1" as="geometry">
            <mxPoint x="972" y="587.5" as="targetPoint" />
          </mxGeometry>
        </mxCell>
        <mxCell id="OUyjQR1rdF7uxZgqNvzY-277" value="" style="ellipse;whiteSpace=wrap;html=1;aspect=fixed;fillColor=#F0F0F0;" vertex="1" parent="1">
          <mxGeometry x="938.69012224179" y="577.1651653442891" width="20.84912244352723" height="20.84912244352723" as="geometry" />
        </mxCell>
        <mxCell id="OUyjQR1rdF7uxZgqNvzY-278" value="&lt;font style=&quot;font-size: 14px;&quot;&gt;$$\geq$$&lt;/font&gt;" style="text;html=1;align=center;verticalAlign=middle;whiteSpace=wrap;rounded=0;" vertex="1" parent="1">
          <mxGeometry x="943.2583264270174" y="580.958476852506" width="11.003703511861593" height="11.497748016433675" as="geometry" />
        </mxCell>
        <mxCell id="OUyjQR1rdF7uxZgqNvzY-279" style="edgeStyle=orthogonalEdgeStyle;rounded=0;orthogonalLoop=1;jettySize=auto;html=1;exitX=1;exitY=0.25;exitDx=0;exitDy=0;entryX=0;entryY=0;entryDx=0;entryDy=0;endArrow=blockThin;endFill=1;endSize=1;" edge="1" parent="1" source="OUyjQR1rdF7uxZgqNvzY-274" target="OUyjQR1rdF7uxZgqNvzY-277">
          <mxGeometry relative="1" as="geometry">
            <mxPoint x="935.0222210711695" y="580.9977480164337" as="targetPoint" />
          </mxGeometry>
        </mxCell>
        <mxCell id="OUyjQR1rdF7uxZgqNvzY-280" style="edgeStyle=orthogonalEdgeStyle;rounded=0;orthogonalLoop=1;jettySize=auto;html=1;exitX=1;exitY=0;exitDx=0;exitDy=0;entryX=0;entryY=0.25;entryDx=0;entryDy=0;endArrow=blockThin;endFill=1;endSize=1;" edge="1" parent="1" source="OUyjQR1rdF7uxZgqNvzY-281" target="OUyjQR1rdF7uxZgqNvzY-286">
          <mxGeometry relative="1" as="geometry" />
        </mxCell>
        <mxCell id="OUyjQR1rdF7uxZgqNvzY-281" value="" style="ellipse;whiteSpace=wrap;html=1;aspect=fixed;fillColor=#F0F0F0;" vertex="1" parent="1">
          <mxGeometry x="883.6716046824822" y="630.8213227543131" width="20.84912244352723" height="20.84912244352723" as="geometry" />
        </mxCell>
        <mxCell id="OUyjQR1rdF7uxZgqNvzY-282" value="" style="endArrow=blockThin;html=1;rounded=0;exitX=1;exitY=0.5;exitDx=0;exitDy=0;entryX=0;entryY=0;entryDx=0;entryDy=0;endFill=1;endSize=1;" edge="1" parent="1" target="OUyjQR1rdF7uxZgqNvzY-281">
          <mxGeometry width="50" height="50" relative="1" as="geometry">
            <mxPoint x="869" y="623.1561574100238" as="sourcePoint" />
            <mxPoint x="942.3580234124106" y="600.1606613771565" as="targetPoint" />
            <Array as="points">
              <mxPoint x="883.6716046824822" y="623.1561574100238" />
            </Array>
          </mxGeometry>
        </mxCell>
        <mxCell id="OUyjQR1rdF7uxZgqNvzY-283" value="" style="endArrow=blockThin;html=1;rounded=0;entryX=0;entryY=1;entryDx=0;entryDy=0;exitX=1;exitY=0.5;exitDx=0;exitDy=0;endFill=1;endSize=1;" edge="1" parent="1" target="OUyjQR1rdF7uxZgqNvzY-281">
          <mxGeometry width="50" height="50" relative="1" as="geometry">
            <mxPoint x="869" y="661.4819841314695" as="sourcePoint" />
            <mxPoint x="898.3432093649642" y="669.1471494757586" as="targetPoint" />
            <Array as="points">
              <mxPoint x="883.6716046824822" y="661.4819841314695" />
            </Array>
          </mxGeometry>
        </mxCell>
        <mxCell id="OUyjQR1rdF7uxZgqNvzY-284" value="&lt;font style=&quot;font-size: 14px;&quot;&gt;$$\geq$$&lt;/font&gt;" style="text;html=1;align=center;verticalAlign=middle;whiteSpace=wrap;rounded=0;" vertex="1" parent="1">
          <mxGeometry x="888.2398088677096" y="634.6146342625298" width="11.003703511861593" height="11.497748016433675" as="geometry" />
        </mxCell>
        <mxCell id="OUyjQR1rdF7uxZgqNvzY-285" value="" style="group" vertex="1" connectable="0" parent="1">
          <mxGeometry x="913.0148140474462" y="626.9887400821683" width="14.671604682482126" height="30.660661377156465" as="geometry" />
        </mxCell>
        <mxCell id="OUyjQR1rdF7uxZgqNvzY-286" value="" style="rounded=0;whiteSpace=wrap;html=1;" vertex="1" parent="OUyjQR1rdF7uxZgqNvzY-285">
          <mxGeometry width="14.671604682482126" height="30.660661377156465" as="geometry" />
        </mxCell>
        <mxCell id="OUyjQR1rdF7uxZgqNvzY-287" value="" style="triangle;whiteSpace=wrap;html=1;rotation=-90;" vertex="1" parent="OUyjQR1rdF7uxZgqNvzY-285">
          <mxGeometry x="3.6679011706205316" y="22.995496032867347" width="7.335802341241063" height="7.665165344289116" as="geometry" />
        </mxCell>
        <mxCell id="OUyjQR1rdF7uxZgqNvzY-288" value="" style="endArrow=blockThin;html=1;rounded=0;entryX=0;entryY=1;entryDx=0;entryDy=0;exitX=1;exitY=0.25;exitDx=0;exitDy=0;endFill=1;endSize=1;" edge="1" parent="1" source="OUyjQR1rdF7uxZgqNvzY-286" target="OUyjQR1rdF7uxZgqNvzY-277">
          <mxGeometry width="50" height="50" relative="1" as="geometry">
            <mxPoint x="957.0296280948928" y="646.1516534428913" as="sourcePoint" />
            <mxPoint x="993.7086398010979" y="607.8258267214458" as="targetPoint" />
            <Array as="points">
              <mxPoint x="935.0222210711695" y="634.6539054264576" />
            </Array>
          </mxGeometry>
        </mxCell>
        <mxCell id="OUyjQR1rdF7uxZgqNvzY-289" value="" style="ellipse;whiteSpace=wrap;html=1;aspect=fixed;fillColor=#F0F0F0;" vertex="1" parent="1">
          <mxGeometry x="938.69012224179" y="630.8213227543131" width="20.84912244352723" height="20.84912244352723" as="geometry" />
        </mxCell>
        <mxCell id="OUyjQR1rdF7uxZgqNvzY-290" value="&lt;font style=&quot;font-size: 14px;&quot;&gt;$$\geq$$&lt;/font&gt;" style="text;html=1;align=center;verticalAlign=middle;whiteSpace=wrap;rounded=0;" vertex="1" parent="1">
          <mxGeometry x="943.2583264270174" y="634.6146342625298" width="11.003703511861593" height="11.497748016433675" as="geometry" />
        </mxCell>
        <mxCell id="OUyjQR1rdF7uxZgqNvzY-291" value="" style="endArrow=blockThin;html=1;rounded=0;exitX=1;exitY=0.75;exitDx=0;exitDy=0;entryX=0;entryY=0;entryDx=0;entryDy=0;endFill=1;endSize=1;" edge="1" parent="1" source="OUyjQR1rdF7uxZgqNvzY-274" target="OUyjQR1rdF7uxZgqNvzY-289">
          <mxGeometry width="50" height="50" relative="1" as="geometry">
            <mxPoint x="979.0370351186159" y="630.8213227543131" as="sourcePoint" />
            <mxPoint x="1015.7160468248212" y="592.4954960328673" as="targetPoint" />
            <Array as="points">
              <mxPoint x="935.0222210711695" y="596.3280787050119" />
            </Array>
          </mxGeometry>
        </mxCell>
        <mxCell id="OUyjQR1rdF7uxZgqNvzY-292" value="" style="ellipse;whiteSpace=wrap;html=1;aspect=fixed;fillColor=#000000;" vertex="1" parent="1">
          <mxGeometry x="902.0111105355847" y="573.3325826721446" width="3.474853740587872" height="3.474853740587872" as="geometry" />
        </mxCell>
        <mxCell id="OUyjQR1rdF7uxZgqNvzY-293" value="" style="ellipse;whiteSpace=wrap;html=1;aspect=fixed;fillColor=#000000;" vertex="1" parent="1">
          <mxGeometry x="902.0111105355847" y="653.8168187871804" width="3.474853740587872" height="3.474853740587872" as="geometry" />
        </mxCell>
        <mxCell id="OUyjQR1rdF7uxZgqNvzY-294" style="edgeStyle=orthogonalEdgeStyle;rounded=0;orthogonalLoop=1;jettySize=auto;html=1;exitX=1;exitY=0;exitDx=0;exitDy=0;entryX=0;entryY=0.25;entryDx=0;entryDy=0;endArrow=blockThin;endFill=1;endSize=1;" edge="1" parent="1" source="OUyjQR1rdF7uxZgqNvzY-295" target="OUyjQR1rdF7uxZgqNvzY-300">
          <mxGeometry relative="1" as="geometry" />
        </mxCell>
        <mxCell id="OUyjQR1rdF7uxZgqNvzY-295" value="" style="ellipse;whiteSpace=wrap;html=1;aspect=fixed;fillColor=#F0F0F0;" vertex="1" parent="1">
          <mxGeometry x="883.6716046824822" y="684.4774801643366" width="20.84912244352723" height="20.84912244352723" as="geometry" />
        </mxCell>
        <mxCell id="OUyjQR1rdF7uxZgqNvzY-296" value="" style="endArrow=blockThin;html=1;rounded=0;exitX=1;exitY=0.5;exitDx=0;exitDy=0;entryX=0;entryY=0;entryDx=0;entryDy=0;endFill=1;endSize=1;" edge="1" parent="1" target="OUyjQR1rdF7uxZgqNvzY-295">
          <mxGeometry width="50" height="50" relative="1" as="geometry">
            <mxPoint x="869" y="676.8123148200477" as="sourcePoint" />
            <mxPoint x="942.3580234124106" y="653.8168187871804" as="targetPoint" />
            <Array as="points">
              <mxPoint x="883.6716046824822" y="676.8123148200477" />
            </Array>
          </mxGeometry>
        </mxCell>
        <mxCell id="OUyjQR1rdF7uxZgqNvzY-297" value="" style="endArrow=blockThin;html=1;rounded=0;entryX=0;entryY=1;entryDx=0;entryDy=0;exitX=1;exitY=0.5;exitDx=0;exitDy=0;endFill=1;endSize=1;" edge="1" parent="1" target="OUyjQR1rdF7uxZgqNvzY-295">
          <mxGeometry width="50" height="50" relative="1" as="geometry">
            <mxPoint x="869" y="715.1381415414935" as="sourcePoint" />
            <mxPoint x="898.3432093649642" y="722.8033068857824" as="targetPoint" />
            <Array as="points">
              <mxPoint x="883.6716046824822" y="715.1381415414935" />
            </Array>
          </mxGeometry>
        </mxCell>
        <mxCell id="OUyjQR1rdF7uxZgqNvzY-298" value="&lt;font style=&quot;font-size: 14px;&quot;&gt;$$\geq$$&lt;/font&gt;" style="text;html=1;align=center;verticalAlign=middle;whiteSpace=wrap;rounded=0;" vertex="1" parent="1">
          <mxGeometry x="888.2398088677096" y="688.2707916725537" width="11.003703511861593" height="11.497748016433675" as="geometry" />
        </mxCell>
        <mxCell id="OUyjQR1rdF7uxZgqNvzY-299" value="" style="group" vertex="1" connectable="0" parent="1">
          <mxGeometry x="913.0148140474462" y="680.6448974921923" width="14.671604682482126" height="30.660661377156465" as="geometry" />
        </mxCell>
        <mxCell id="OUyjQR1rdF7uxZgqNvzY-300" value="" style="rounded=0;whiteSpace=wrap;html=1;" vertex="1" parent="OUyjQR1rdF7uxZgqNvzY-299">
          <mxGeometry width="14.671604682482126" height="30.660661377156465" as="geometry" />
        </mxCell>
        <mxCell id="OUyjQR1rdF7uxZgqNvzY-301" value="" style="triangle;whiteSpace=wrap;html=1;rotation=-90;" vertex="1" parent="OUyjQR1rdF7uxZgqNvzY-299">
          <mxGeometry x="3.6679011706205316" y="22.995496032867347" width="7.335802341241063" height="7.665165344289116" as="geometry" />
        </mxCell>
        <mxCell id="OUyjQR1rdF7uxZgqNvzY-302" value="" style="ellipse;whiteSpace=wrap;html=1;aspect=fixed;fillColor=#F0F0F0;" vertex="1" parent="1">
          <mxGeometry x="938.69012224179" y="684.4774801643366" width="20.84912244352723" height="20.84912244352723" as="geometry" />
        </mxCell>
        <mxCell id="OUyjQR1rdF7uxZgqNvzY-303" value="&lt;font style=&quot;font-size: 14px;&quot;&gt;$$\geq$$&lt;/font&gt;" style="text;html=1;align=center;verticalAlign=middle;whiteSpace=wrap;rounded=0;" vertex="1" parent="1">
          <mxGeometry x="943.2583264270174" y="688.2707916725537" width="11.003703511861593" height="11.497748016433675" as="geometry" />
        </mxCell>
        <mxCell id="OUyjQR1rdF7uxZgqNvzY-304" style="edgeStyle=orthogonalEdgeStyle;rounded=0;orthogonalLoop=1;jettySize=auto;html=1;exitX=1;exitY=0.25;exitDx=0;exitDy=0;entryX=0;entryY=0;entryDx=0;entryDy=0;endArrow=blockThin;endFill=1;endSize=1;" edge="1" parent="1" source="OUyjQR1rdF7uxZgqNvzY-300" target="OUyjQR1rdF7uxZgqNvzY-302">
          <mxGeometry relative="1" as="geometry">
            <mxPoint x="935.0222210711695" y="688.3100628364814" as="targetPoint" />
          </mxGeometry>
        </mxCell>
        <mxCell id="OUyjQR1rdF7uxZgqNvzY-305" value="" style="endArrow=blockThin;html=1;rounded=0;exitX=1;exitY=0.75;exitDx=0;exitDy=0;endFill=1;endSize=1;" edge="1" parent="1" source="OUyjQR1rdF7uxZgqNvzY-300">
          <mxGeometry width="50" height="50" relative="1" as="geometry">
            <mxPoint x="979.0370351186159" y="738.1336375743606" as="sourcePoint" />
            <mxPoint x="943.6918056562727" y="722.3899999999999" as="targetPoint" />
            <Array as="points">
              <mxPoint x="935.0222210711695" y="703.6403935250596" />
            </Array>
          </mxGeometry>
        </mxCell>
        <mxCell id="OUyjQR1rdF7uxZgqNvzY-306" value="" style="ellipse;whiteSpace=wrap;html=1;aspect=fixed;fillColor=#000000;" vertex="1" parent="1">
          <mxGeometry x="902.0111105355847" y="680.6448974921923" width="3.474853740587872" height="3.474853740587872" as="geometry" />
        </mxCell>
        <mxCell id="OUyjQR1rdF7uxZgqNvzY-307" value="" style="endArrow=none;dashed=1;html=1;dashPattern=1 3;strokeWidth=2;rounded=0;" edge="1" parent="1">
          <mxGeometry width="50" height="50" relative="1" as="geometry">
            <mxPoint x="946.9970485859317" y="670.2063710786183" as="sourcePoint" />
            <mxPoint x="965.6699999999998" y="670.1800815425329" as="targetPoint" />
          </mxGeometry>
        </mxCell>
        <mxCell id="OUyjQR1rdF7uxZgqNvzY-308" value="" style="endArrow=none;dashed=1;html=1;dashPattern=1 3;strokeWidth=2;rounded=0;" edge="1" parent="1">
          <mxGeometry width="50" height="50" relative="1" as="geometry">
            <mxPoint x="920.1265409717184" y="660.574661875" as="sourcePoint" />
            <mxPoint x="920.1265409717184" y="678.7303493750001" as="targetPoint" />
          </mxGeometry>
        </mxCell>
        <mxCell id="OUyjQR1rdF7uxZgqNvzY-309" value="" style="endArrow=blockThin;html=1;rounded=0;exitX=1;exitY=1;exitDx=0;exitDy=0;entryX=-0.017;entryY=0.696;entryDx=0;entryDy=0;entryPerimeter=0;endSize=1;endFill=1;" edge="1" parent="1" source="OUyjQR1rdF7uxZgqNvzY-269" target="OUyjQR1rdF7uxZgqNvzY-274">
          <mxGeometry width="50" height="50" relative="1" as="geometry">
            <mxPoint x="902" y="599.5" as="sourcePoint" />
            <mxPoint x="952" y="579.5" as="targetPoint" />
          </mxGeometry>
        </mxCell>
        <mxCell id="OUyjQR1rdF7uxZgqNvzY-310" value="" style="endArrow=blockThin;html=1;rounded=0;exitX=1;exitY=1;exitDx=0;exitDy=0;entryX=-0.017;entryY=0.696;entryDx=0;entryDy=0;entryPerimeter=0;endSize=1;endFill=1;" edge="1" parent="1">
          <mxGeometry width="50" height="50" relative="1" as="geometry">
            <mxPoint x="901.01" y="649.5899999999999" as="sourcePoint" />
            <mxPoint x="913.01" y="649.5899999999999" as="targetPoint" />
          </mxGeometry>
        </mxCell>
        <mxCell id="OUyjQR1rdF7uxZgqNvzY-311" value="" style="endArrow=blockThin;html=1;rounded=0;exitX=1;exitY=1;exitDx=0;exitDy=0;entryX=-0.017;entryY=0.696;entryDx=0;entryDy=0;entryPerimeter=0;endSize=1;endFill=1;" edge="1" parent="1">
          <mxGeometry width="50" height="50" relative="1" as="geometry">
            <mxPoint x="901.01" y="702.5899999999999" as="sourcePoint" />
            <mxPoint x="913.01" y="702.5899999999999" as="targetPoint" />
          </mxGeometry>
        </mxCell>
        <mxCell id="OUyjQR1rdF7uxZgqNvzY-312" value="" style="endArrow=blockThin;html=1;rounded=0;exitX=1.029;exitY=0.707;exitDx=0;exitDy=0;entryX=0;entryY=1;entryDx=0;entryDy=0;endSize=1;endFill=1;exitPerimeter=0;" edge="1" parent="1" source="OUyjQR1rdF7uxZgqNvzY-286" target="OUyjQR1rdF7uxZgqNvzY-289">
          <mxGeometry width="50" height="50" relative="1" as="geometry">
            <mxPoint x="928.01" y="649.5899999999999" as="sourcePoint" />
            <mxPoint x="940.01" y="649.5899999999999" as="targetPoint" />
          </mxGeometry>
        </mxCell>
        <mxCell id="OUyjQR1rdF7uxZgqNvzY-313" style="edgeStyle=orthogonalEdgeStyle;rounded=0;orthogonalLoop=1;jettySize=auto;html=1;exitX=1;exitY=0.5;exitDx=0;exitDy=0;endArrow=blockThin;endFill=1;curved=0;endSize=1;" edge="1" parent="1">
          <mxGeometry relative="1" as="geometry">
            <mxPoint x="959.54" y="641.1300000000001" as="sourcePoint" />
            <mxPoint x="971.54" y="641.1300000000001" as="targetPoint" />
          </mxGeometry>
        </mxCell>
        <mxCell id="OUyjQR1rdF7uxZgqNvzY-314" style="edgeStyle=orthogonalEdgeStyle;rounded=0;orthogonalLoop=1;jettySize=auto;html=1;exitX=1;exitY=0.5;exitDx=0;exitDy=0;endArrow=blockThin;endFill=1;curved=0;endSize=1;" edge="1" parent="1">
          <mxGeometry relative="1" as="geometry">
            <mxPoint x="959.54" y="695.8600000000001" as="sourcePoint" />
            <mxPoint x="971.54" y="695.8600000000001" as="targetPoint" />
          </mxGeometry>
        </mxCell>
        <mxCell id="OUyjQR1rdF7uxZgqNvzY-315" value="" style="endArrow=block;html=1;rounded=0;strokeWidth=2;endSize=1;endFill=1;entryX=0;entryY=0.75;entryDx=0;entryDy=0;" edge="1" parent="1" target="OUyjQR1rdF7uxZgqNvzY-206">
          <mxGeometry width="50" height="50" relative="1" as="geometry">
            <mxPoint x="1020" y="638.5" as="sourcePoint" />
            <mxPoint x="1030" y="678.5" as="targetPoint" />
            <Array as="points">
              <mxPoint x="1020" y="669.5" />
              <mxPoint x="1020" y="699.5" />
              <mxPoint x="1020" y="759.5" />
              <mxPoint x="1420" y="759.5" />
              <mxPoint x="1420" y="688.5" />
            </Array>
          </mxGeometry>
        </mxCell>
        <mxCell id="OUyjQR1rdF7uxZgqNvzY-316" value="" style="endArrow=block;html=1;rounded=0;entryX=0.344;entryY=-0.008;entryDx=0;entryDy=0;entryPerimeter=0;endSize=1;endFill=1;strokeWidth=2;exitX=1.005;exitY=0.758;exitDx=0;exitDy=0;exitPerimeter=0;" edge="1" parent="1" source="OUyjQR1rdF7uxZgqNvzY-206" target="OUyjQR1rdF7uxZgqNvzY-207">
          <mxGeometry width="50" height="50" relative="1" as="geometry">
            <mxPoint x="1490.366" y="689.6300000000001" as="sourcePoint" />
            <mxPoint x="1033.56524" y="669.43032" as="targetPoint" />
            <Array as="points">
              <mxPoint x="1497" y="689.5" />
              <mxPoint x="1497" y="729.5" />
              <mxPoint x="1497" y="769.5" />
              <mxPoint x="1027" y="769.5" />
              <mxPoint x="1027" y="719.5" />
              <mxPoint x="1027" y="669.5" />
            </Array>
          </mxGeometry>
        </mxCell>
        <mxCell id="OUyjQR1rdF7uxZgqNvzY-317" value="" style="endArrow=none;html=1;rounded=0;endSize=1;endFill=1;strokeWidth=2;startFill=0;" edge="1" parent="1">
          <mxGeometry width="50" height="50" relative="1" as="geometry">
            <mxPoint x="1214.84" y="690.5" as="sourcePoint" />
            <mxPoint x="1440" y="289.5" as="targetPoint" />
            <Array as="points">
              <mxPoint x="1215" y="289.5" />
              <mxPoint x="1280" y="289.5" />
              <mxPoint x="1360" y="289.5" />
            </Array>
          </mxGeometry>
        </mxCell>
        <mxCell id="OUyjQR1rdF7uxZgqNvzY-318" style="edgeStyle=orthogonalEdgeStyle;rounded=0;orthogonalLoop=1;jettySize=auto;html=1;endSize=1;endArrow=block;endFill=1;strokeWidth=2;" edge="1" parent="1" source="OUyjQR1rdF7uxZgqNvzY-319">
          <mxGeometry relative="1" as="geometry">
            <mxPoint x="1530" y="288.5" as="targetPoint" />
          </mxGeometry>
        </mxCell>
        <mxCell id="OUyjQR1rdF7uxZgqNvzY-319" value="" style="shape=trapezoid;perimeter=trapezoidPerimeter;whiteSpace=wrap;html=1;fixedSize=1;rotation=-90;fillColor=#FFFFFF;strokeWidth=1;" vertex="1" parent="1">
          <mxGeometry x="1410.8" y="274.0600000000002" width="131.22" height="28.44" as="geometry" />
        </mxCell>
        <mxCell id="OUyjQR1rdF7uxZgqNvzY-320" value="" style="endArrow=block;html=1;rounded=0;entryX=-0.005;entryY=0.335;entryDx=0;entryDy=0;entryPerimeter=0;endSize=1;endFill=1;strokeWidth=2;" edge="1" parent="1">
          <mxGeometry width="50" height="50" relative="1" as="geometry">
            <mxPoint x="1439.84" y="288.5" as="sourcePoint" />
            <mxPoint x="1461.86" y="263.1600000000001" as="targetPoint" />
            <Array as="points">
              <mxPoint x="1449.84" y="263.5" />
            </Array>
          </mxGeometry>
        </mxCell>
        <mxCell id="OUyjQR1rdF7uxZgqNvzY-321" value="" style="endArrow=block;html=1;rounded=0;entryX=-0.005;entryY=0.335;entryDx=0;entryDy=0;entryPerimeter=0;endSize=1;endFill=1;strokeWidth=2;" edge="1" parent="1">
          <mxGeometry width="50" height="50" relative="1" as="geometry">
            <mxPoint x="1439.84" y="288.5" as="sourcePoint" />
            <mxPoint x="1461.86" y="273.1600000000001" as="targetPoint" />
            <Array as="points">
              <mxPoint x="1449.84" y="273.5" />
            </Array>
          </mxGeometry>
        </mxCell>
        <mxCell id="OUyjQR1rdF7uxZgqNvzY-322" value="" style="endArrow=block;html=1;rounded=0;entryX=-0.005;entryY=0.335;entryDx=0;entryDy=0;entryPerimeter=0;endSize=1;endFill=1;strokeWidth=2;" edge="1" parent="1">
          <mxGeometry width="50" height="50" relative="1" as="geometry">
            <mxPoint x="1439.84" y="288.5" as="sourcePoint" />
            <mxPoint x="1461.86" y="283.1600000000001" as="targetPoint" />
            <Array as="points">
              <mxPoint x="1449.84" y="283.5" />
            </Array>
          </mxGeometry>
        </mxCell>
        <mxCell id="OUyjQR1rdF7uxZgqNvzY-323" value="" style="endArrow=block;html=1;rounded=0;entryX=-0.005;entryY=0.335;entryDx=0;entryDy=0;entryPerimeter=0;endSize=1;endFill=1;strokeWidth=2;" edge="1" parent="1">
          <mxGeometry width="50" height="50" relative="1" as="geometry">
            <mxPoint x="1439.84" y="288.5" as="sourcePoint" />
            <mxPoint x="1461.86" y="293.1600000000001" as="targetPoint" />
            <Array as="points">
              <mxPoint x="1449.84" y="293.5" />
            </Array>
          </mxGeometry>
        </mxCell>
        <mxCell id="OUyjQR1rdF7uxZgqNvzY-324" value="" style="endArrow=block;html=1;rounded=0;entryX=-0.005;entryY=0.335;entryDx=0;entryDy=0;entryPerimeter=0;endSize=1;endFill=1;strokeWidth=2;" edge="1" parent="1">
          <mxGeometry width="50" height="50" relative="1" as="geometry">
            <mxPoint x="1439.84" y="288.5" as="sourcePoint" />
            <mxPoint x="1461.86" y="303.1600000000001" as="targetPoint" />
            <Array as="points">
              <mxPoint x="1449.84" y="303.5" />
            </Array>
          </mxGeometry>
        </mxCell>
        <mxCell id="OUyjQR1rdF7uxZgqNvzY-325" value="" style="endArrow=block;html=1;rounded=0;entryX=-0.005;entryY=0.335;entryDx=0;entryDy=0;entryPerimeter=0;endSize=1;endFill=1;strokeWidth=2;" edge="1" parent="1">
          <mxGeometry width="50" height="50" relative="1" as="geometry">
            <mxPoint x="1439.84" y="288.5" as="sourcePoint" />
            <mxPoint x="1461.86" y="313.1600000000001" as="targetPoint" />
            <Array as="points">
              <mxPoint x="1449.84" y="313.5" />
            </Array>
          </mxGeometry>
        </mxCell>
        <mxCell id="OUyjQR1rdF7uxZgqNvzY-326" value="" style="endArrow=block;html=1;rounded=0;entryX=-0.005;entryY=0.335;entryDx=0;entryDy=0;entryPerimeter=0;endSize=1;endFill=1;strokeWidth=2;" edge="1" parent="1">
          <mxGeometry width="50" height="50" relative="1" as="geometry">
            <mxPoint x="1439.84" y="288.5" as="sourcePoint" />
            <mxPoint x="1461.86" y="323.1600000000001" as="targetPoint" />
            <Array as="points">
              <mxPoint x="1449.84" y="323.5" />
            </Array>
          </mxGeometry>
        </mxCell>
        <mxCell id="OUyjQR1rdF7uxZgqNvzY-327" value="" style="endArrow=block;html=1;rounded=0;entryX=-0.005;entryY=0.335;entryDx=0;entryDy=0;entryPerimeter=0;endSize=1;endFill=1;strokeWidth=2;" edge="1" parent="1">
          <mxGeometry width="50" height="50" relative="1" as="geometry">
            <mxPoint x="1439.84" y="288.5" as="sourcePoint" />
            <mxPoint x="1462" y="251.5000000000001" as="targetPoint" />
            <Array as="points">
              <mxPoint x="1449.84" y="251.5" />
            </Array>
          </mxGeometry>
        </mxCell>
        <mxCell id="OUyjQR1rdF7uxZgqNvzY-328" style="edgeStyle=orthogonalEdgeStyle;rounded=0;orthogonalLoop=1;jettySize=auto;html=1;endSize=1;strokeWidth=2;endArrow=block;endFill=1;startFill=0;exitX=0.5;exitY=1;exitDx=0;exitDy=0;" edge="1" parent="1">
          <mxGeometry relative="1" as="geometry">
            <mxPoint x="1019.8899999999999" y="637.452380952381" as="targetPoint" />
            <mxPoint x="1019.8899999999999" y="296.5" as="sourcePoint" />
          </mxGeometry>
        </mxCell>
        <mxCell id="OUyjQR1rdF7uxZgqNvzY-329" value="" style="group" vertex="1" connectable="0" parent="1">
          <mxGeometry x="994.8399999999999" y="271.5" width="50.10000000000002" height="28" as="geometry" />
        </mxCell>
        <mxCell id="OUyjQR1rdF7uxZgqNvzY-330" value="&lt;font style=&quot;font-size: 8px;&quot;&gt;$$\text{CntIndx}$$&lt;/font&gt;" style="rounded=0;whiteSpace=wrap;html=1;" vertex="1" parent="OUyjQR1rdF7uxZgqNvzY-329">
          <mxGeometry width="50.1" height="28" as="geometry" />
        </mxCell>
        <mxCell id="OUyjQR1rdF7uxZgqNvzY-331" value="" style="triangle;whiteSpace=wrap;html=1;rotation=-90;" vertex="1" parent="OUyjQR1rdF7uxZgqNvzY-329">
          <mxGeometry x="37.080000000000155" y="15.509999999999991" width="7.95" height="15.57" as="geometry" />
        </mxCell>
        <mxCell id="OUyjQR1rdF7uxZgqNvzY-332" value="&lt;font style=&quot;font-size: 8px;&quot;&gt;$$\text{en}$$&lt;/font&gt;" style="text;html=1;align=center;verticalAlign=middle;whiteSpace=wrap;rounded=0;" vertex="1" parent="OUyjQR1rdF7uxZgqNvzY-329">
          <mxGeometry x="1.1368683772161603e-13" width="10.52" height="7.54" as="geometry" />
        </mxCell>
        <mxCell id="OUyjQR1rdF7uxZgqNvzY-333" value="" style="group" vertex="1" connectable="0" parent="1">
          <mxGeometry x="1058.84" y="271.5" width="50.10000000000002" height="28" as="geometry" />
        </mxCell>
        <mxCell id="OUyjQR1rdF7uxZgqNvzY-334" value="&lt;font style=&quot;font-size: 8px;&quot;&gt;$$\text{CntR}$$&lt;/font&gt;" style="rounded=0;whiteSpace=wrap;html=1;" vertex="1" parent="OUyjQR1rdF7uxZgqNvzY-333">
          <mxGeometry width="50.1" height="28" as="geometry" />
        </mxCell>
        <mxCell id="OUyjQR1rdF7uxZgqNvzY-335" value="" style="triangle;whiteSpace=wrap;html=1;rotation=-90;" vertex="1" parent="OUyjQR1rdF7uxZgqNvzY-333">
          <mxGeometry x="37.080000000000155" y="15.509999999999991" width="7.95" height="15.57" as="geometry" />
        </mxCell>
        <mxCell id="OUyjQR1rdF7uxZgqNvzY-336" value="&lt;font style=&quot;font-size: 8px;&quot;&gt;$$\text{en}$$&lt;/font&gt;" style="text;html=1;align=center;verticalAlign=middle;whiteSpace=wrap;rounded=0;" vertex="1" parent="OUyjQR1rdF7uxZgqNvzY-333">
          <mxGeometry x="1.1368683772161603e-13" width="10.52" height="7.54" as="geometry" />
        </mxCell>
        <mxCell id="OUyjQR1rdF7uxZgqNvzY-337" value="" style="endArrow=block;html=1;rounded=0;exitX=0.5;exitY=1;exitDx=0;exitDy=0;entryX=0.501;entryY=-0.204;entryDx=0;entryDy=0;entryPerimeter=0;endSize=1;endFill=1;strokeWidth=2;" edge="1" parent="1" source="OUyjQR1rdF7uxZgqNvzY-334">
          <mxGeometry width="50" height="50" relative="1" as="geometry">
            <mxPoint x="1106.84" y="399.5" as="sourcePoint" />
            <mxPoint x="1084.20284" y="351.93776" as="targetPoint" />
          </mxGeometry>
        </mxCell>
        <mxCell id="OUyjQR1rdF7uxZgqNvzY-338" value="" style="group" vertex="1" connectable="0" parent="1">
          <mxGeometry x="1141.84" y="271.5" width="50.10000000000002" height="28" as="geometry" />
        </mxCell>
        <mxCell id="OUyjQR1rdF7uxZgqNvzY-339" value="&lt;font style=&quot;font-size: 8px;&quot;&gt;$$\text{CntRB}$$&lt;/font&gt;" style="rounded=0;whiteSpace=wrap;html=1;" vertex="1" parent="OUyjQR1rdF7uxZgqNvzY-338">
          <mxGeometry width="50.1" height="28" as="geometry" />
        </mxCell>
        <mxCell id="OUyjQR1rdF7uxZgqNvzY-340" value="" style="triangle;whiteSpace=wrap;html=1;rotation=-90;" vertex="1" parent="OUyjQR1rdF7uxZgqNvzY-338">
          <mxGeometry x="37.080000000000155" y="15.509999999999991" width="7.95" height="15.57" as="geometry" />
        </mxCell>
        <mxCell id="OUyjQR1rdF7uxZgqNvzY-341" value="&lt;font style=&quot;font-size: 8px;&quot;&gt;$$\text{en}$$&lt;/font&gt;" style="text;html=1;align=center;verticalAlign=middle;whiteSpace=wrap;rounded=0;" vertex="1" parent="OUyjQR1rdF7uxZgqNvzY-338">
          <mxGeometry x="1.1368683772161603e-13" width="10.52" height="7.54" as="geometry" />
        </mxCell>
        <mxCell id="OUyjQR1rdF7uxZgqNvzY-342" style="edgeStyle=orthogonalEdgeStyle;rounded=0;orthogonalLoop=1;jettySize=auto;html=1;entryX=0.5;entryY=0;entryDx=0;entryDy=0;strokeWidth=2;endArrow=block;endFill=1;endSize=1;" edge="1" parent="1" source="OUyjQR1rdF7uxZgqNvzY-339" target="OUyjQR1rdF7uxZgqNvzY-249">
          <mxGeometry relative="1" as="geometry" />
        </mxCell>
        <mxCell id="OUyjQR1rdF7uxZgqNvzY-343" value="" style="group" vertex="1" connectable="0" parent="1">
          <mxGeometry x="1368.8999999999999" y="200.5" width="50.10000000000002" height="28" as="geometry" />
        </mxCell>
        <mxCell id="OUyjQR1rdF7uxZgqNvzY-344" value="&lt;font style=&quot;font-size: 8px;&quot;&gt;$$\text{CntOut}$$&lt;/font&gt;" style="rounded=0;whiteSpace=wrap;html=1;" vertex="1" parent="OUyjQR1rdF7uxZgqNvzY-343">
          <mxGeometry width="50.1" height="28" as="geometry" />
        </mxCell>
        <mxCell id="OUyjQR1rdF7uxZgqNvzY-345" value="" style="triangle;whiteSpace=wrap;html=1;rotation=-90;" vertex="1" parent="OUyjQR1rdF7uxZgqNvzY-343">
          <mxGeometry x="37.080000000000155" y="15.509999999999991" width="7.95" height="15.57" as="geometry" />
        </mxCell>
        <mxCell id="OUyjQR1rdF7uxZgqNvzY-346" value="&lt;font style=&quot;font-size: 8px;&quot;&gt;$$\text{en}$$&lt;/font&gt;" style="text;html=1;align=center;verticalAlign=middle;whiteSpace=wrap;rounded=0;" vertex="1" parent="OUyjQR1rdF7uxZgqNvzY-343">
          <mxGeometry width="10.52" height="7.54" as="geometry" />
        </mxCell>
        <mxCell id="OUyjQR1rdF7uxZgqNvzY-347" value="&lt;font style=&quot;font-size: 8px;&quot;&gt;$$\text{en}$$&lt;/font&gt;" style="text;html=1;align=center;verticalAlign=middle;whiteSpace=wrap;rounded=0;" vertex="1" parent="1">
          <mxGeometry x="883.6700000000001" y="539.19" width="10.52" height="7.54" as="geometry" />
        </mxCell>
        <mxCell id="OUyjQR1rdF7uxZgqNvzY-348" style="edgeStyle=orthogonalEdgeStyle;rounded=0;orthogonalLoop=1;jettySize=auto;html=1;entryX=1;entryY=0.25;entryDx=0;entryDy=0;strokeWidth=2;endArrow=block;endFill=1;endSize=1;" edge="1" parent="1" source="OUyjQR1rdF7uxZgqNvzY-344" target="OUyjQR1rdF7uxZgqNvzY-319">
          <mxGeometry relative="1" as="geometry">
            <Array as="points">
              <mxPoint x="1470.84" y="214.5" />
            </Array>
          </mxGeometry>
        </mxCell>
        <mxCell id="OUyjQR1rdF7uxZgqNvzY-349" value="" style="group" vertex="1" connectable="0" parent="1">
          <mxGeometry x="1384.9999999999998" y="168.5" width="50.10000000000002" height="28" as="geometry" />
        </mxCell>
        <mxCell id="OUyjQR1rdF7uxZgqNvzY-350" style="edgeStyle=orthogonalEdgeStyle;rounded=0;orthogonalLoop=1;jettySize=auto;html=1;strokeWidth=2;endArrow=block;endFill=1;endSize=1;" edge="1" parent="OUyjQR1rdF7uxZgqNvzY-349" source="OUyjQR1rdF7uxZgqNvzY-351">
          <mxGeometry relative="1" as="geometry">
            <mxPoint x="145.00000000000023" y="14" as="targetPoint" />
          </mxGeometry>
        </mxCell>
        <mxCell id="OUyjQR1rdF7uxZgqNvzY-351" value="&lt;font style=&quot;font-size: 8px;&quot;&gt;$$\text{CntAddrB}$$&lt;/font&gt;" style="rounded=0;whiteSpace=wrap;html=1;" vertex="1" parent="OUyjQR1rdF7uxZgqNvzY-349">
          <mxGeometry width="50.1" height="28" as="geometry" />
        </mxCell>
        <mxCell id="OUyjQR1rdF7uxZgqNvzY-352" value="" style="triangle;whiteSpace=wrap;html=1;rotation=-90;" vertex="1" parent="OUyjQR1rdF7uxZgqNvzY-349">
          <mxGeometry x="37.080000000000155" y="15.509999999999991" width="7.95" height="15.57" as="geometry" />
        </mxCell>
        <mxCell id="OUyjQR1rdF7uxZgqNvzY-353" value="&lt;font style=&quot;font-size: 8px;&quot;&gt;$$\text{en}$$&lt;/font&gt;" style="text;html=1;align=center;verticalAlign=middle;whiteSpace=wrap;rounded=0;" vertex="1" parent="OUyjQR1rdF7uxZgqNvzY-349">
          <mxGeometry width="10.52" height="7.54" as="geometry" />
        </mxCell>
        <mxCell id="OUyjQR1rdF7uxZgqNvzY-354" value="" style="endArrow=block;html=1;rounded=0;entryX=1;entryY=0.25;entryDx=0;entryDy=0;strokeWidth=2;endFill=1;endSize=1;" edge="1" parent="1" target="OUyjQR1rdF7uxZgqNvzY-191">
          <mxGeometry width="50" height="50" relative="1" as="geometry">
            <mxPoint x="1167.84" y="379.5" as="sourcePoint" />
            <mxPoint x="1386.810409290469" y="604.6778275031864" as="targetPoint" />
            <Array as="points">
              <mxPoint x="1390" y="379.5" />
            </Array>
          </mxGeometry>
        </mxCell>
        <mxCell id="OUyjQR1rdF7uxZgqNvzY-355" value="" style="endArrow=block;html=1;rounded=0;entryX=-0.005;entryY=0.335;entryDx=0;entryDy=0;entryPerimeter=0;endSize=1;endFill=1;strokeWidth=2;" edge="1" parent="1">
          <mxGeometry width="50" height="50" relative="1" as="geometry">
            <mxPoint x="840" y="631.5" as="sourcePoint" />
            <mxPoint x="865" y="631.5" as="targetPoint" />
          </mxGeometry>
        </mxCell>
        <mxCell id="OUyjQR1rdF7uxZgqNvzY-356" value="" style="endArrow=block;html=1;rounded=0;entryX=-0.005;entryY=0.335;entryDx=0;entryDy=0;entryPerimeter=0;endSize=1;endFill=1;strokeWidth=2;" edge="1" parent="1">
          <mxGeometry width="50" height="50" relative="1" as="geometry">
            <mxPoint x="840" y="641.5" as="sourcePoint" />
            <mxPoint x="865" y="641.5" as="targetPoint" />
          </mxGeometry>
        </mxCell>
        <mxCell id="OUyjQR1rdF7uxZgqNvzY-357" value="" style="endArrow=block;html=1;rounded=0;entryX=-0.005;entryY=0.335;entryDx=0;entryDy=0;entryPerimeter=0;endSize=1;endFill=1;strokeWidth=2;" edge="1" parent="1">
          <mxGeometry width="50" height="50" relative="1" as="geometry">
            <mxPoint x="840" y="651.5" as="sourcePoint" />
            <mxPoint x="865" y="651.5" as="targetPoint" />
          </mxGeometry>
        </mxCell>
        <mxCell id="OUyjQR1rdF7uxZgqNvzY-358" value="" style="endArrow=block;html=1;rounded=0;entryX=-0.005;entryY=0.335;entryDx=0;entryDy=0;entryPerimeter=0;endSize=1;endFill=1;strokeWidth=2;" edge="1" parent="1">
          <mxGeometry width="50" height="50" relative="1" as="geometry">
            <mxPoint x="840" y="661.5" as="sourcePoint" />
            <mxPoint x="865" y="661.5" as="targetPoint" />
          </mxGeometry>
        </mxCell>
        <mxCell id="OUyjQR1rdF7uxZgqNvzY-359" value="" style="endArrow=block;html=1;rounded=0;entryX=-0.005;entryY=0.335;entryDx=0;entryDy=0;entryPerimeter=0;endSize=1;endFill=1;strokeWidth=2;" edge="1" parent="1">
          <mxGeometry width="50" height="50" relative="1" as="geometry">
            <mxPoint x="840" y="671.5" as="sourcePoint" />
            <mxPoint x="865" y="671.5" as="targetPoint" />
          </mxGeometry>
        </mxCell>
        <mxCell id="OUyjQR1rdF7uxZgqNvzY-360" value="" style="endArrow=block;html=1;rounded=0;entryX=-0.005;entryY=0.335;entryDx=0;entryDy=0;entryPerimeter=0;endSize=1;endFill=1;strokeWidth=2;" edge="1" parent="1">
          <mxGeometry width="50" height="50" relative="1" as="geometry">
            <mxPoint x="840" y="681.5" as="sourcePoint" />
            <mxPoint x="865" y="681.5" as="targetPoint" />
          </mxGeometry>
        </mxCell>
        <mxCell id="OUyjQR1rdF7uxZgqNvzY-361" value="" style="endArrow=block;html=1;rounded=0;entryX=-0.005;entryY=0.335;entryDx=0;entryDy=0;entryPerimeter=0;endSize=1;endFill=1;strokeWidth=2;" edge="1" parent="1">
          <mxGeometry width="50" height="50" relative="1" as="geometry">
            <mxPoint x="840" y="691.5" as="sourcePoint" />
            <mxPoint x="865" y="691.5" as="targetPoint" />
          </mxGeometry>
        </mxCell>
        <mxCell id="OUyjQR1rdF7uxZgqNvzY-362" value="" style="endArrow=block;html=1;rounded=0;entryX=-0.005;entryY=0.335;entryDx=0;entryDy=0;entryPerimeter=0;endSize=1;endFill=1;strokeWidth=2;" edge="1" parent="1">
          <mxGeometry width="50" height="50" relative="1" as="geometry">
            <mxPoint x="840" y="621.5" as="sourcePoint" />
            <mxPoint x="865" y="621.5" as="targetPoint" />
          </mxGeometry>
        </mxCell>
        <mxCell id="OUyjQR1rdF7uxZgqNvzY-363" value="" style="rounded=1;whiteSpace=wrap;html=1;strokeColor=#006EAF;strokeWidth=2;" vertex="1" parent="1">
          <mxGeometry x="930.0000000000001" y="109.5" width="48" height="140" as="geometry" />
        </mxCell>
        <mxCell id="OUyjQR1rdF7uxZgqNvzY-364" value="" style="endArrow=block;html=1;rounded=0;entryX=-0.005;entryY=0.335;entryDx=0;entryDy=0;entryPerimeter=0;endSize=1;endFill=1;strokeWidth=2;" edge="1" parent="1">
          <mxGeometry width="50" height="50" relative="1" as="geometry">
            <mxPoint x="840" y="701.5" as="sourcePoint" />
            <mxPoint x="865" y="701.5" as="targetPoint" />
          </mxGeometry>
        </mxCell>
        <mxCell id="OUyjQR1rdF7uxZgqNvzY-365" value="" style="endArrow=block;html=1;rounded=0;entryX=-0.005;entryY=0.335;entryDx=0;entryDy=0;entryPerimeter=0;endSize=1;endFill=1;strokeWidth=2;" edge="1" parent="1">
          <mxGeometry width="50" height="50" relative="1" as="geometry">
            <mxPoint x="840" y="611.5" as="sourcePoint" />
            <mxPoint x="865" y="611.5" as="targetPoint" />
          </mxGeometry>
        </mxCell>
        <mxCell id="OUyjQR1rdF7uxZgqNvzY-366" value="" style="endArrow=block;html=1;rounded=0;exitX=0.999;exitY=0.859;exitDx=0;exitDy=0;entryX=1;entryY=0.5;entryDx=0;entryDy=0;endSize=1;endFill=1;strokeColor=#006EAF;exitPerimeter=0;" edge="1" parent="1" source="OUyjQR1rdF7uxZgqNvzY-363" target="OUyjQR1rdF7uxZgqNvzY-207">
          <mxGeometry width="50" height="50" relative="1" as="geometry">
            <mxPoint x="1051.74" y="249.5" as="sourcePoint" />
            <mxPoint x="1054.2899999999997" y="600.3499999999998" as="targetPoint" />
            <Array as="points">
              <mxPoint x="1010" y="229.5" />
              <mxPoint x="1052" y="229.5" />
            </Array>
          </mxGeometry>
        </mxCell>
        <mxCell id="OUyjQR1rdF7uxZgqNvzY-367" value="" style="endArrow=block;html=1;rounded=0;entryX=0.5;entryY=0;entryDx=0;entryDy=0;exitX=1.016;exitY=0.928;exitDx=0;exitDy=0;exitPerimeter=0;endSize=1;endFill=1;strokeColor=#006EAF;" edge="1" parent="1" source="OUyjQR1rdF7uxZgqNvzY-363" target="OUyjQR1rdF7uxZgqNvzY-332">
          <mxGeometry width="50" height="50" relative="1" as="geometry">
            <mxPoint x="880" y="399.5" as="sourcePoint" />
            <mxPoint x="930" y="349.5" as="targetPoint" />
            <Array as="points">
              <mxPoint x="980" y="239.5" />
              <mxPoint x="1000" y="239.5" />
            </Array>
          </mxGeometry>
        </mxCell>
        <mxCell id="OUyjQR1rdF7uxZgqNvzY-368" value="" style="endArrow=block;html=1;rounded=0;exitX=1.008;exitY=0.786;exitDx=0;exitDy=0;exitPerimeter=0;entryX=0.093;entryY=-0.01;entryDx=0;entryDy=0;entryPerimeter=0;strokeColor=#006EAF;endFill=1;endSize=1;" edge="1" parent="1" source="OUyjQR1rdF7uxZgqNvzY-363" target="OUyjQR1rdF7uxZgqNvzY-334">
          <mxGeometry width="50" height="50" relative="1" as="geometry">
            <mxPoint x="1070" y="269.5" as="sourcePoint" />
            <mxPoint x="1120" y="219.5" as="targetPoint" />
            <Array as="points">
              <mxPoint x="1063" y="219.5" />
            </Array>
          </mxGeometry>
        </mxCell>
        <mxCell id="OUyjQR1rdF7uxZgqNvzY-369" value="" style="endArrow=block;html=1;rounded=0;entryX=0.198;entryY=0.367;entryDx=0;entryDy=0;endSize=1;endFill=1;strokeColor=#006EAF;entryPerimeter=0;exitX=1.015;exitY=0.714;exitDx=0;exitDy=0;exitPerimeter=0;" edge="1" parent="1" source="OUyjQR1rdF7uxZgqNvzY-363" target="OUyjQR1rdF7uxZgqNvzY-255">
          <mxGeometry width="50" height="50" relative="1" as="geometry">
            <mxPoint x="970" y="209.5" as="sourcePoint" />
            <mxPoint x="960" y="339.5" as="targetPoint" />
            <Array as="points">
              <mxPoint x="1050" y="209.5" />
              <mxPoint x="1130" y="209.5" />
              <mxPoint x="1130" y="369.5" />
            </Array>
          </mxGeometry>
        </mxCell>
        <mxCell id="OUyjQR1rdF7uxZgqNvzY-370" value="" style="endArrow=block;html=1;rounded=0;entryX=0.217;entryY=0.318;entryDx=0;entryDy=0;endSize=1;endFill=1;strokeColor=#006EAF;exitX=1.019;exitY=0.641;exitDx=0;exitDy=0;exitPerimeter=0;entryPerimeter=0;" edge="1" parent="1" source="OUyjQR1rdF7uxZgqNvzY-363" target="OUyjQR1rdF7uxZgqNvzY-209">
          <mxGeometry width="50" height="50" relative="1" as="geometry">
            <mxPoint x="968.768" y="197.10000000000002" as="sourcePoint" />
            <mxPoint x="1121.05469" y="497.2657999999999" as="targetPoint" />
            <Array as="points">
              <mxPoint x="1050" y="199.5" />
              <mxPoint x="1090" y="199.5" />
              <mxPoint x="1110" y="199.5" />
              <mxPoint x="1120" y="199.5" />
              <mxPoint x="1130" y="199.5" />
              <mxPoint x="1136" y="199.5" />
              <mxPoint x="1136" y="497.5" />
            </Array>
          </mxGeometry>
        </mxCell>
        <mxCell id="OUyjQR1rdF7uxZgqNvzY-371" value="" style="endArrow=block;html=1;rounded=0;entryX=0.5;entryY=0;entryDx=0;entryDy=0;strokeColor=#006EAF;endSize=1;endFill=1;exitX=1.016;exitY=0.574;exitDx=0;exitDy=0;exitPerimeter=0;" edge="1" parent="1" source="OUyjQR1rdF7uxZgqNvzY-363" target="OUyjQR1rdF7uxZgqNvzY-341">
          <mxGeometry width="50" height="50" relative="1" as="geometry">
            <mxPoint x="969" y="189.5" as="sourcePoint" />
            <mxPoint x="1210" y="179.5" as="targetPoint" />
            <Array as="points">
              <mxPoint x="1147" y="189.5" />
            </Array>
          </mxGeometry>
        </mxCell>
        <mxCell id="OUyjQR1rdF7uxZgqNvzY-372" value="" style="endArrow=block;html=1;rounded=0;entryX=0.194;entryY=0.366;entryDx=0;entryDy=0;entryPerimeter=0;endSize=1;endFill=1;strokeColor=#006EAF;exitX=1.013;exitY=0.502;exitDx=0;exitDy=0;exitPerimeter=0;" edge="1" parent="1" source="OUyjQR1rdF7uxZgqNvzY-363" target="OUyjQR1rdF7uxZgqNvzY-210">
          <mxGeometry width="50" height="50" relative="1" as="geometry">
            <mxPoint x="970" y="179.5" as="sourcePoint" />
            <mxPoint x="1188.8246937370957" y="496.89400550585003" as="targetPoint" />
            <Array as="points">
              <mxPoint x="1207" y="179.5" />
              <mxPoint x="1207" y="496.5" />
            </Array>
          </mxGeometry>
        </mxCell>
        <mxCell id="OUyjQR1rdF7uxZgqNvzY-373" value="" style="endArrow=block;html=1;rounded=0;exitX=1;exitY=0.433;exitDx=0;exitDy=0;exitPerimeter=0;entryX=0;entryY=0.25;entryDx=0;entryDy=0;endSize=1;endFill=1;strokeColor=#006EAF;" edge="1" parent="1" source="OUyjQR1rdF7uxZgqNvzY-363" target="OUyjQR1rdF7uxZgqNvzY-258">
          <mxGeometry width="50" height="50" relative="1" as="geometry">
            <mxPoint x="1260" y="279.5" as="sourcePoint" />
            <mxPoint x="1310" y="229.5" as="targetPoint" />
            <Array as="points">
              <mxPoint x="1300" y="169.5" />
              <mxPoint x="1300" y="462.5" />
            </Array>
          </mxGeometry>
        </mxCell>
        <mxCell id="OUyjQR1rdF7uxZgqNvzY-374" value="" style="endArrow=block;html=1;rounded=0;exitX=1.003;exitY=0.36;exitDx=0;exitDy=0;exitPerimeter=0;entryX=0.5;entryY=0;entryDx=0;entryDy=0;strokeColor=#006EAF;endSize=1;endFill=1;" edge="1" parent="1" source="OUyjQR1rdF7uxZgqNvzY-363" target="OUyjQR1rdF7uxZgqNvzY-346">
          <mxGeometry width="50" height="50" relative="1" as="geometry">
            <mxPoint x="1160" y="169.5" as="sourcePoint" />
            <mxPoint x="1210" y="119.5" as="targetPoint" />
            <Array as="points">
              <mxPoint x="1374" y="159.5" />
            </Array>
          </mxGeometry>
        </mxCell>
        <mxCell id="OUyjQR1rdF7uxZgqNvzY-375" value="" style="endArrow=block;html=1;rounded=0;entryX=0.5;entryY=0;entryDx=0;entryDy=0;endSize=1;endFill=1;strokeColor=#006EAF;exitX=1.016;exitY=0.288;exitDx=0;exitDy=0;exitPerimeter=0;" edge="1" parent="1" source="OUyjQR1rdF7uxZgqNvzY-363" target="OUyjQR1rdF7uxZgqNvzY-353">
          <mxGeometry width="50" height="50" relative="1" as="geometry">
            <mxPoint x="980" y="149.5" as="sourcePoint" />
            <mxPoint x="1370" y="149.5" as="targetPoint" />
            <Array as="points">
              <mxPoint x="1360" y="149.5" />
              <mxPoint x="1370" y="149.5" />
              <mxPoint x="1390" y="149.5" />
            </Array>
          </mxGeometry>
        </mxCell>
        <mxCell id="OUyjQR1rdF7uxZgqNvzY-376" value="" style="endArrow=block;html=1;rounded=0;exitX=0.151;exitY=-0.001;exitDx=0;exitDy=0;exitPerimeter=0;entryX=0.751;entryY=-0.205;entryDx=0;entryDy=0;entryPerimeter=0;endSize=1;endFill=1;strokeWidth=2;" edge="1" parent="1" source="OUyjQR1rdF7uxZgqNvzY-206" target="OUyjQR1rdF7uxZgqNvzY-256">
          <mxGeometry width="50" height="50" relative="1" as="geometry">
            <mxPoint x="1450" y="559.5" as="sourcePoint" />
            <mxPoint x="1108" y="349.5" as="targetPoint" />
            <Array as="points">
              <mxPoint x="1441" y="339.5" />
              <mxPoint x="1108" y="339.5" />
            </Array>
          </mxGeometry>
        </mxCell>
        <mxCell id="OUyjQR1rdF7uxZgqNvzY-377" value="" style="group" vertex="1" connectable="0" parent="1">
          <mxGeometry x="864.8399999999998" y="271.5" width="50.10000000000002" height="28" as="geometry" />
        </mxCell>
        <mxCell id="OUyjQR1rdF7uxZgqNvzY-378" value="&lt;font style=&quot;font-size: 8px;&quot;&gt;$$\text{CntAddrA}$$&lt;/font&gt;" style="rounded=0;whiteSpace=wrap;html=1;" vertex="1" parent="OUyjQR1rdF7uxZgqNvzY-377">
          <mxGeometry width="50.1" height="28" as="geometry" />
        </mxCell>
        <mxCell id="OUyjQR1rdF7uxZgqNvzY-379" value="" style="triangle;whiteSpace=wrap;html=1;rotation=-90;" vertex="1" parent="OUyjQR1rdF7uxZgqNvzY-377">
          <mxGeometry x="37.080000000000155" y="15.509999999999991" width="7.95" height="15.57" as="geometry" />
        </mxCell>
        <mxCell id="OUyjQR1rdF7uxZgqNvzY-380" value="&lt;font style=&quot;font-size: 8px;&quot;&gt;$$\text{en}$$&lt;/font&gt;" style="text;html=1;align=center;verticalAlign=middle;whiteSpace=wrap;rounded=0;" vertex="1" parent="OUyjQR1rdF7uxZgqNvzY-377">
          <mxGeometry x="1.1368683772161603e-13" width="10.52" height="7.54" as="geometry" />
        </mxCell>
        <mxCell id="OUyjQR1rdF7uxZgqNvzY-381" value="" style="endArrow=block;html=1;rounded=0;exitX=0.75;exitY=1;exitDx=0;exitDy=0;entryX=0.222;entryY=0;entryDx=0;entryDy=0;entryPerimeter=0;strokeColor=#006EAF;endFill=1;endSize=1;" edge="1" parent="1" source="OUyjQR1rdF7uxZgqNvzY-363" target="OUyjQR1rdF7uxZgqNvzY-154">
          <mxGeometry width="50" height="50" relative="1" as="geometry">
            <mxPoint x="930" y="419.5" as="sourcePoint" />
            <mxPoint x="980" y="369.5" as="targetPoint" />
            <Array as="points">
              <mxPoint x="966" y="319.5" />
              <mxPoint x="890" y="319.5" />
              <mxPoint x="890" y="389.5" />
            </Array>
          </mxGeometry>
        </mxCell>
        <mxCell id="OUyjQR1rdF7uxZgqNvzY-382" value="" style="endArrow=block;html=1;rounded=0;exitX=0.25;exitY=1;exitDx=0;exitDy=0;entryX=0.5;entryY=0;entryDx=0;entryDy=0;endFill=1;endSize=1;strokeColor=#006EAF;" edge="1" parent="1" source="OUyjQR1rdF7uxZgqNvzY-363" target="OUyjQR1rdF7uxZgqNvzY-380">
          <mxGeometry width="50" height="50" relative="1" as="geometry">
            <mxPoint x="940" y="339.5" as="sourcePoint" />
            <mxPoint x="990" y="289.5" as="targetPoint" />
            <Array as="points">
              <mxPoint x="942" y="259.5" />
              <mxPoint x="870" y="259.5" />
            </Array>
          </mxGeometry>
        </mxCell>
        <mxCell id="OUyjQR1rdF7uxZgqNvzY-383" value="" style="endArrow=block;html=1;rounded=0;exitX=0;exitY=0.5;exitDx=0;exitDy=0;endSize=1;endFill=1;strokeWidth=2;" edge="1" parent="1" source="OUyjQR1rdF7uxZgqNvzY-378">
          <mxGeometry width="50" height="50" relative="1" as="geometry">
            <mxPoint x="830" y="369.5" as="sourcePoint" />
            <mxPoint x="840" y="285.5" as="targetPoint" />
          </mxGeometry>
        </mxCell>
        <mxCell id="OUyjQR1rdF7uxZgqNvzY-384" value="&lt;font style=&quot;font-size: 8px; color: rgb(0, 110, 175);&quot;&gt;$$\text{CntIndxEn}$$&lt;/font&gt;" style="text;html=1;align=center;verticalAlign=middle;whiteSpace=wrap;rounded=0;" vertex="1" parent="1">
          <mxGeometry x="986" y="227.4999999999999" width="35.52" height="16.44" as="geometry" />
        </mxCell>
        <mxCell id="OUyjQR1rdF7uxZgqNvzY-385" value="&lt;font style=&quot;font-size: 8px; color: rgb(0, 110, 175);&quot;&gt;$$\text{MrgnSrcEn}$$&lt;/font&gt;" style="text;html=1;align=center;verticalAlign=middle;whiteSpace=wrap;rounded=0;" vertex="1" parent="1">
          <mxGeometry x="986" y="217.4999999999999" width="35.52" height="16.44" as="geometry" />
        </mxCell>
        <mxCell id="OUyjQR1rdF7uxZgqNvzY-386" value="&lt;font style=&quot;font-size: 8px; color: rgb(0, 110, 175);&quot;&gt;$$\text{CntREn}$$&lt;/font&gt;" style="text;html=1;align=center;verticalAlign=middle;whiteSpace=wrap;rounded=0;" vertex="1" parent="1">
          <mxGeometry x="979.9999999999999" y="207.4999999999999" width="35.52" height="16.44" as="geometry" />
        </mxCell>
        <mxCell id="OUyjQR1rdF7uxZgqNvzY-387" value="&lt;font style=&quot;font-size: 8px; color: rgb(0, 110, 175);&quot;&gt;$$\text{DecRSrc}$$&lt;/font&gt;" style="text;html=1;align=center;verticalAlign=middle;whiteSpace=wrap;rounded=0;" vertex="1" parent="1">
          <mxGeometry x="981.9999999999999" y="197.4999999999999" width="35.52" height="16.44" as="geometry" />
        </mxCell>
        <mxCell id="OUyjQR1rdF7uxZgqNvzY-388" value="&lt;font style=&quot;font-size: 8px; color: rgb(0, 110, 175);&quot;&gt;$$\text{RSrc}$$&lt;/font&gt;" style="text;html=1;align=center;verticalAlign=middle;whiteSpace=wrap;rounded=0;" vertex="1" parent="1">
          <mxGeometry x="973.9999999999999" y="187.4999999999999" width="35.52" height="16.44" as="geometry" />
        </mxCell>
        <mxCell id="OUyjQR1rdF7uxZgqNvzY-389" value="&lt;font style=&quot;font-size: 8px; color: rgb(0, 110, 175);&quot;&gt;$$\text{CntRBEn}$$&lt;/font&gt;" style="text;html=1;align=center;verticalAlign=middle;whiteSpace=wrap;rounded=0;" vertex="1" parent="1">
          <mxGeometry x="982.9999999999999" y="177.4999999999999" width="35.52" height="16.44" as="geometry" />
        </mxCell>
        <mxCell id="OUyjQR1rdF7uxZgqNvzY-390" value="&lt;font style=&quot;font-size: 8px; color: rgb(0, 110, 175);&quot;&gt;$$\text{RBSrc}$$&lt;/font&gt;" style="text;html=1;align=center;verticalAlign=middle;whiteSpace=wrap;rounded=0;" vertex="1" parent="1">
          <mxGeometry x="976.9999999999999" y="167.4999999999999" width="35.52" height="16.44" as="geometry" />
        </mxCell>
        <mxCell id="OUyjQR1rdF7uxZgqNvzY-391" value="&lt;font style=&quot;font-size: 8px; color: rgb(0, 110, 175);&quot;&gt;$$\text{TrigMTreeSrc}$$&lt;/font&gt;" style="text;html=1;align=center;verticalAlign=middle;whiteSpace=wrap;rounded=0;" vertex="1" parent="1">
          <mxGeometry x="992" y="157.4999999999999" width="35.52" height="16.44" as="geometry" />
        </mxCell>
        <mxCell id="OUyjQR1rdF7uxZgqNvzY-392" value="&lt;font style=&quot;font-size: 8px; color: rgb(0, 110, 175);&quot;&gt;$$\text{CntOutEn}$$&lt;/font&gt;" style="text;html=1;align=center;verticalAlign=middle;whiteSpace=wrap;rounded=0;" vertex="1" parent="1">
          <mxGeometry x="985" y="147.4999999999999" width="35.52" height="16.44" as="geometry" />
        </mxCell>
        <mxCell id="OUyjQR1rdF7uxZgqNvzY-393" value="&lt;font style=&quot;font-size: 8px; color: rgb(0, 110, 175);&quot;&gt;$$\text{CntAddrBEn}$$&lt;/font&gt;" style="text;html=1;align=center;verticalAlign=middle;whiteSpace=wrap;rounded=0;" vertex="1" parent="1">
          <mxGeometry x="991" y="137.4999999999999" width="35.52" height="16.44" as="geometry" />
        </mxCell>
        <mxCell id="OUyjQR1rdF7uxZgqNvzY-394" value="&lt;font style=&quot;font-size: 8px;&quot;&gt;$$\text{RB_0-7}$$&lt;/font&gt;" style="text;html=1;align=center;verticalAlign=middle;whiteSpace=wrap;rounded=0;" vertex="1" parent="1">
          <mxGeometry x="1148.1899999999998" y="730.06" width="35.52" height="16.44" as="geometry" />
        </mxCell>
        <mxCell id="OUyjQR1rdF7uxZgqNvzY-395" value="&lt;font style=&quot;font-size: 8px;&quot;&gt;$$\text{MTree_0-7}$$&lt;/font&gt;" style="text;html=1;align=center;verticalAlign=middle;whiteSpace=wrap;rounded=0;" vertex="1" parent="1">
          <mxGeometry x="1294.6499999999999" y="730.06" width="35.52" height="16.44" as="geometry" />
        </mxCell>
        <mxCell id="OUyjQR1rdF7uxZgqNvzY-396" value="&lt;font style=&quot;font-size: 8px;&quot;&gt;$$\text{MaxSrc}$$&lt;/font&gt;" style="text;html=1;align=center;verticalAlign=middle;whiteSpace=wrap;rounded=0;rotation=90;" vertex="1" parent="1">
          <mxGeometry x="1379" y="647.3299999999999" width="35.52" height="16.44" as="geometry" />
        </mxCell>
        <mxCell id="OUyjQR1rdF7uxZgqNvzY-397" value="&lt;font style=&quot;font-size: 8px;&quot;&gt;$$\text{MrgnPipeline}$$&lt;/font&gt;" style="text;html=1;align=center;verticalAlign=middle;whiteSpace=wrap;rounded=0;" vertex="1" parent="1">
          <mxGeometry x="924.0199999999999" y="730.06" width="35.52" height="16.44" as="geometry" />
        </mxCell>
        <mxCell id="OUyjQR1rdF7uxZgqNvzY-398" value="&lt;font style=&quot;font-size: 8px;&quot;&gt;$$\text{MrgnSrc}$$&lt;/font&gt;" style="text;html=1;align=center;verticalAlign=middle;whiteSpace=wrap;rounded=0;rotation=90;" vertex="1" parent="1">
          <mxGeometry x="1033.85" y="640.74" width="35.52" height="16.44" as="geometry" />
        </mxCell>
        <mxCell id="OUyjQR1rdF7uxZgqNvzY-399" value="&lt;font style=&quot;font-size: 8px;&quot;&gt;$$\text{OutSrc}$$&lt;/font&gt;" style="text;html=1;align=center;verticalAlign=middle;whiteSpace=wrap;rounded=0;rotation=90;" vertex="1" parent="1">
          <mxGeometry x="1458.6499999999999" y="280.05999999999995" width="35.52" height="16.44" as="geometry" />
        </mxCell>
        <mxCell id="OUyjQR1rdF7uxZgqNvzY-400" value="&lt;font style=&quot;font-size: 8px; color: rgb(0, 110, 175);&quot;&gt;$$\text{MrgnPipelineEn}$$&lt;/font&gt;" style="text;html=1;align=center;verticalAlign=middle;whiteSpace=wrap;rounded=0;rotation=90;" vertex="1" parent="1">
          <mxGeometry x="954.2599999999999" y="278.6199999999999" width="35.52" height="16.44" as="geometry" />
        </mxCell>
        <mxCell id="OUyjQR1rdF7uxZgqNvzY-401" value="&lt;font style=&quot;font-size: 8px; color: rgb(0, 110, 175);&quot;&gt;$$\text{CntAddrAEn}$$&lt;/font&gt;" style="text;html=1;align=center;verticalAlign=middle;whiteSpace=wrap;rounded=0;rotation=90;" vertex="1" parent="1">
          <mxGeometry x="929.2599999999999" y="274.6199999999999" width="35.52" height="16.44" as="geometry" />
        </mxCell>
        <mxCell id="OUyjQR1rdF7uxZgqNvzY-402" value="&lt;font style=&quot;font-size: 8px;&quot;&gt;$$\text{MTreeSrc}$$&lt;/font&gt;" style="text;html=1;align=center;verticalAlign=middle;whiteSpace=wrap;rounded=0;rotation=0;" vertex="1" parent="1">
          <mxGeometry x="889.4999999999999" y="214.05999999999995" width="35.52" height="16.44" as="geometry" />
        </mxCell>
        <mxCell id="OUyjQR1rdF7uxZgqNvzY-403" value="&lt;font style=&quot;font-size: 8px;&quot;&gt;$$\text{Cntr}$$&lt;/font&gt;" style="text;html=1;align=center;verticalAlign=middle;whiteSpace=wrap;rounded=0;rotation=0;" vertex="1" parent="1">
          <mxGeometry x="936.2399999999999" y="167.4999999999999" width="35.52" height="16.44" as="geometry" />
        </mxCell>
        <mxCell id="OUyjQR1rdF7uxZgqNvzY-404" value="" style="triangle;whiteSpace=wrap;html=1;rotation=-90;strokeColor=#006EAF;" vertex="1" parent="1">
          <mxGeometry x="950.02" y="237.94000000000005" width="7.95" height="15.57" as="geometry" />
        </mxCell>
        <mxCell id="OUyjQR1rdF7uxZgqNvzY-405" value="" style="endArrow=block;html=1;rounded=0;endSize=1;endFill=1;" edge="1" parent="1">
          <mxGeometry width="50" height="50" relative="1" as="geometry">
            <mxPoint x="840" y="119.5" as="sourcePoint" />
            <mxPoint x="929.26" y="119.5" as="targetPoint" />
          </mxGeometry>
        </mxCell>
        <mxCell id="OUyjQR1rdF7uxZgqNvzY-406" value="" style="endArrow=block;html=1;rounded=0;exitX=1.016;exitY=0.071;exitDx=0;exitDy=0;exitPerimeter=0;endSize=1;endFill=1;strokeColor=#006EAF;" edge="1" parent="1" source="OUyjQR1rdF7uxZgqNvzY-363">
          <mxGeometry width="50" height="50" relative="1" as="geometry">
            <mxPoint x="990" y="119.5" as="sourcePoint" />
            <mxPoint x="1530" y="119.5" as="targetPoint" />
            <Array as="points">
              <mxPoint x="1260" y="119.5" />
            </Array>
          </mxGeometry>
        </mxCell>
        <mxCell id="OUyjQR1rdF7uxZgqNvzY-407" value="&lt;font style=&quot;font-size: 8px;&quot;&gt;$$\text{Start}$$&lt;/font&gt;" style="text;html=1;align=center;verticalAlign=middle;whiteSpace=wrap;rounded=0;rotation=0;" vertex="1" parent="1">
          <mxGeometry x="898.4799999999999" y="105.49999999999989" width="35.52" height="16.44" as="geometry" />
        </mxCell>
        <mxCell id="OUyjQR1rdF7uxZgqNvzY-408" value="&lt;font style=&quot;font-size: 8px; color: rgb(0, 110, 175);&quot;&gt;$$\text{Ready}$$&lt;/font&gt;" style="text;html=1;align=center;verticalAlign=middle;whiteSpace=wrap;rounded=0;rotation=0;" vertex="1" parent="1">
          <mxGeometry x="976.9999999999999" y="106.49999999999989" width="35.52" height="16.44" as="geometry" />
        </mxCell>
        <mxCell id="OUyjQR1rdF7uxZgqNvzY-409" value="" style="endArrow=block;html=1;rounded=0;endSize=1;endFill=1;strokeWidth=2;" edge="1" parent="1">
          <mxGeometry width="50" height="50" relative="1" as="geometry">
            <mxPoint x="1084.7692307692307" y="327.5" as="sourcePoint" />
            <mxPoint x="1024" y="637.8846153846154" as="targetPoint" />
            <Array as="points">
              <mxPoint x="1024" y="327.5" />
            </Array>
          </mxGeometry>
        </mxCell>
        <mxCell id="OUyjQR1rdF7uxZgqNvzY-410" value="" style="rounded=0;whiteSpace=wrap;html=1;" vertex="1" parent="1">
          <mxGeometry x="295.38" y="299.22" width="29.62" height="132.8" as="geometry" />
        </mxCell>
        <mxCell id="OUyjQR1rdF7uxZgqNvzY-411" value="" style="triangle;whiteSpace=wrap;html=1;rotation=-90;" vertex="1" parent="1">
          <mxGeometry x="305.80999999999995" y="420.19000000000005" width="7.95" height="15.57" as="geometry" />
        </mxCell>
        <mxCell id="OUyjQR1rdF7uxZgqNvzY-412" value="&lt;font style=&quot;font-size: 8px;&quot;&gt;$$\text{10 x 16-bit reg}$$&lt;/font&gt;" style="text;html=1;align=center;verticalAlign=middle;whiteSpace=wrap;rounded=0;rotation=90;" vertex="1" parent="1">
          <mxGeometry x="265.1" y="352.9599999999999" width="90.19" height="16.44" as="geometry" />
        </mxCell>
        <mxCell id="OUyjQR1rdF7uxZgqNvzY-413" value="&lt;font style=&quot;font-size: 8px;&quot;&gt;$$\text{en}$$&lt;/font&gt;" style="text;html=1;align=center;verticalAlign=middle;whiteSpace=wrap;rounded=0;" vertex="1" parent="1">
          <mxGeometry x="298.46" y="302.95" width="10.52" height="7.54" as="geometry" />
        </mxCell>
        <mxCell id="OUyjQR1rdF7uxZgqNvzY-414" value="" style="endArrow=block;html=1;rounded=0;exitX=1;exitY=0.75;exitDx=0;exitDy=0;entryX=0;entryY=1;entryDx=0;entryDy=0;endSize=1;endFill=1;strokeWidth=2;" edge="1" parent="1" target="OUyjQR1rdF7uxZgqNvzY-417">
          <mxGeometry width="50" height="50" relative="1" as="geometry">
            <mxPoint x="504.66" y="417.505" as="sourcePoint" />
            <mxPoint x="572.16" y="474.39" as="targetPoint" />
            <Array as="points">
              <mxPoint x="512.16" y="417.39" />
            </Array>
          </mxGeometry>
        </mxCell>
        <mxCell id="OUyjQR1rdF7uxZgqNvzY-415" value="" style="endArrow=block;html=1;rounded=0;exitX=1;exitY=0.25;exitDx=0;exitDy=0;entryX=0;entryY=0;entryDx=0;entryDy=0;endSize=1;endFill=1;strokeWidth=2;" edge="1" parent="1" target="OUyjQR1rdF7uxZgqNvzY-417">
          <mxGeometry width="50" height="50" relative="1" as="geometry">
            <mxPoint x="504.66" y="308.735" as="sourcePoint" />
            <mxPoint x="582.16" y="284.39" as="targetPoint" />
            <Array as="points">
              <mxPoint x="512.16" y="308.39" />
            </Array>
          </mxGeometry>
        </mxCell>
        <mxCell id="OUyjQR1rdF7uxZgqNvzY-416" value="" style="rounded=0;whiteSpace=wrap;html=1;" vertex="1" parent="1">
          <mxGeometry x="399.99999999999994" y="256.85" width="111.5" height="217.54" as="geometry" />
        </mxCell>
        <mxCell id="OUyjQR1rdF7uxZgqNvzY-417" value="" style="ellipse;whiteSpace=wrap;html=1;aspect=fixed;" vertex="1" parent="1">
          <mxGeometry x="520.8399999999998" y="346.4" width="32.17" height="32.17" as="geometry" />
        </mxCell>
        <mxCell id="OUyjQR1rdF7uxZgqNvzY-418" value="" style="endArrow=none;html=1;rounded=0;" edge="1" parent="1">
          <mxGeometry width="50" height="50" relative="1" as="geometry">
            <mxPoint x="526.92" y="363.2500000000001" as="sourcePoint" />
            <mxPoint x="546.92" y="363.2500000000001" as="targetPoint" />
          </mxGeometry>
        </mxCell>
        <mxCell id="OUyjQR1rdF7uxZgqNvzY-419" style="edgeStyle=orthogonalEdgeStyle;rounded=0;orthogonalLoop=1;jettySize=auto;html=1;exitX=1;exitY=0;exitDx=0;exitDy=0;entryX=0;entryY=0.25;entryDx=0;entryDy=0;endArrow=blockThin;endFill=1;endSize=1;" edge="1" parent="1" source="OUyjQR1rdF7uxZgqNvzY-420" target="OUyjQR1rdF7uxZgqNvzY-425">
          <mxGeometry relative="1" as="geometry" />
        </mxCell>
        <mxCell id="OUyjQR1rdF7uxZgqNvzY-420" value="" style="ellipse;whiteSpace=wrap;html=1;aspect=fixed;fillColor=#F0F0F0;" vertex="1" parent="1">
          <mxGeometry x="418.83160468248224" y="302.0551653442891" width="20.84912244352723" height="20.84912244352723" as="geometry" />
        </mxCell>
        <mxCell id="OUyjQR1rdF7uxZgqNvzY-421" value="" style="endArrow=blockThin;html=1;rounded=0;exitX=1;exitY=0.5;exitDx=0;exitDy=0;entryX=0;entryY=0;entryDx=0;entryDy=0;endFill=1;endSize=1;" edge="1" parent="1" target="OUyjQR1rdF7uxZgqNvzY-420">
          <mxGeometry width="50" height="50" relative="1" as="geometry">
            <mxPoint x="404.16" y="294.39" as="sourcePoint" />
            <mxPoint x="477.5180234124106" y="271.39450396713266" as="targetPoint" />
            <Array as="points">
              <mxPoint x="418.83160468248224" y="294.39" />
            </Array>
          </mxGeometry>
        </mxCell>
        <mxCell id="OUyjQR1rdF7uxZgqNvzY-422" value="" style="endArrow=blockThin;html=1;rounded=0;entryX=0;entryY=1;entryDx=0;entryDy=0;exitX=1;exitY=0.5;exitDx=0;exitDy=0;endFill=1;endSize=1;" edge="1" parent="1" target="OUyjQR1rdF7uxZgqNvzY-420">
          <mxGeometry width="50" height="50" relative="1" as="geometry">
            <mxPoint x="404.16" y="332.71582672144575" as="sourcePoint" />
            <mxPoint x="433.5032093649642" y="340.38099206573463" as="targetPoint" />
            <Array as="points">
              <mxPoint x="418.83160468248224" y="332.71582672144575" />
            </Array>
          </mxGeometry>
        </mxCell>
        <mxCell id="OUyjQR1rdF7uxZgqNvzY-423" value="&lt;font style=&quot;font-size: 14px;&quot;&gt;$$\geq$$&lt;/font&gt;" style="text;html=1;align=center;verticalAlign=middle;whiteSpace=wrap;rounded=0;" vertex="1" parent="1">
          <mxGeometry x="423.3998088677096" y="305.848476852506" width="11.003703511861593" height="11.497748016433675" as="geometry" />
        </mxCell>
        <mxCell id="OUyjQR1rdF7uxZgqNvzY-424" value="" style="group" vertex="1" connectable="0" parent="1">
          <mxGeometry x="448.1748140474462" y="298.22258267214454" width="14.671604682482126" height="30.660661377156465" as="geometry" />
        </mxCell>
        <mxCell id="OUyjQR1rdF7uxZgqNvzY-425" value="" style="rounded=0;whiteSpace=wrap;html=1;" vertex="1" parent="OUyjQR1rdF7uxZgqNvzY-424">
          <mxGeometry width="14.671604682482126" height="30.660661377156465" as="geometry" />
        </mxCell>
        <mxCell id="OUyjQR1rdF7uxZgqNvzY-426" value="" style="triangle;whiteSpace=wrap;html=1;rotation=-90;" vertex="1" parent="OUyjQR1rdF7uxZgqNvzY-424">
          <mxGeometry x="3.6679011706205316" y="22.995496032867347" width="7.335802341241063" height="7.665165344289116" as="geometry" />
        </mxCell>
        <mxCell id="OUyjQR1rdF7uxZgqNvzY-427" style="edgeStyle=orthogonalEdgeStyle;rounded=0;orthogonalLoop=1;jettySize=auto;html=1;exitX=1;exitY=0.5;exitDx=0;exitDy=0;endArrow=blockThin;endFill=1;curved=0;endSize=1;" edge="1" parent="1" source="OUyjQR1rdF7uxZgqNvzY-428">
          <mxGeometry relative="1" as="geometry">
            <mxPoint x="507.16" y="312.39" as="targetPoint" />
          </mxGeometry>
        </mxCell>
        <mxCell id="OUyjQR1rdF7uxZgqNvzY-428" value="" style="ellipse;whiteSpace=wrap;html=1;aspect=fixed;fillColor=#F0F0F0;" vertex="1" parent="1">
          <mxGeometry x="473.8501222417901" y="302.0551653442891" width="20.84912244352723" height="20.84912244352723" as="geometry" />
        </mxCell>
        <mxCell id="OUyjQR1rdF7uxZgqNvzY-429" value="&lt;font style=&quot;font-size: 14px;&quot;&gt;$$\geq$$&lt;/font&gt;" style="text;html=1;align=center;verticalAlign=middle;whiteSpace=wrap;rounded=0;" vertex="1" parent="1">
          <mxGeometry x="478.41832642701746" y="305.848476852506" width="11.003703511861593" height="11.497748016433675" as="geometry" />
        </mxCell>
        <mxCell id="OUyjQR1rdF7uxZgqNvzY-430" style="edgeStyle=orthogonalEdgeStyle;rounded=0;orthogonalLoop=1;jettySize=auto;html=1;exitX=1;exitY=0.25;exitDx=0;exitDy=0;entryX=0;entryY=0;entryDx=0;entryDy=0;endArrow=blockThin;endFill=1;endSize=1;" edge="1" parent="1" source="OUyjQR1rdF7uxZgqNvzY-425" target="OUyjQR1rdF7uxZgqNvzY-428">
          <mxGeometry relative="1" as="geometry">
            <mxPoint x="470.1822210711695" y="305.88774801643365" as="targetPoint" />
          </mxGeometry>
        </mxCell>
        <mxCell id="OUyjQR1rdF7uxZgqNvzY-431" style="edgeStyle=orthogonalEdgeStyle;rounded=0;orthogonalLoop=1;jettySize=auto;html=1;exitX=1;exitY=0;exitDx=0;exitDy=0;entryX=0;entryY=0.25;entryDx=0;entryDy=0;endArrow=blockThin;endFill=1;endSize=1;" edge="1" parent="1" source="OUyjQR1rdF7uxZgqNvzY-432" target="OUyjQR1rdF7uxZgqNvzY-437">
          <mxGeometry relative="1" as="geometry" />
        </mxCell>
        <mxCell id="OUyjQR1rdF7uxZgqNvzY-432" value="" style="ellipse;whiteSpace=wrap;html=1;aspect=fixed;fillColor=#F0F0F0;" vertex="1" parent="1">
          <mxGeometry x="418.83160468248224" y="355.7113227543131" width="20.84912244352723" height="20.84912244352723" as="geometry" />
        </mxCell>
        <mxCell id="OUyjQR1rdF7uxZgqNvzY-433" value="" style="endArrow=blockThin;html=1;rounded=0;exitX=1;exitY=0.5;exitDx=0;exitDy=0;entryX=0;entryY=0;entryDx=0;entryDy=0;endFill=1;endSize=1;" edge="1" parent="1" target="OUyjQR1rdF7uxZgqNvzY-432">
          <mxGeometry width="50" height="50" relative="1" as="geometry">
            <mxPoint x="404.16" y="348.04615741002374" as="sourcePoint" />
            <mxPoint x="477.5180234124106" y="325.05066137715653" as="targetPoint" />
            <Array as="points">
              <mxPoint x="418.83160468248224" y="348.04615741002374" />
            </Array>
          </mxGeometry>
        </mxCell>
        <mxCell id="OUyjQR1rdF7uxZgqNvzY-434" value="" style="endArrow=blockThin;html=1;rounded=0;entryX=0;entryY=1;entryDx=0;entryDy=0;exitX=1;exitY=0.5;exitDx=0;exitDy=0;endFill=1;endSize=1;" edge="1" parent="1" target="OUyjQR1rdF7uxZgqNvzY-432">
          <mxGeometry width="50" height="50" relative="1" as="geometry">
            <mxPoint x="404.16" y="386.3719841314695" as="sourcePoint" />
            <mxPoint x="433.5032093649642" y="394.0371494757586" as="targetPoint" />
            <Array as="points">
              <mxPoint x="418.83160468248224" y="386.3719841314695" />
            </Array>
          </mxGeometry>
        </mxCell>
        <mxCell id="OUyjQR1rdF7uxZgqNvzY-435" value="&lt;font style=&quot;font-size: 14px;&quot;&gt;$$\geq$$&lt;/font&gt;" style="text;html=1;align=center;verticalAlign=middle;whiteSpace=wrap;rounded=0;" vertex="1" parent="1">
          <mxGeometry x="423.3998088677096" y="359.50463426252975" width="11.003703511861593" height="11.497748016433675" as="geometry" />
        </mxCell>
        <mxCell id="OUyjQR1rdF7uxZgqNvzY-436" value="" style="group" vertex="1" connectable="0" parent="1">
          <mxGeometry x="448.1748140474462" y="351.8787400821683" width="14.671604682482126" height="30.660661377156465" as="geometry" />
        </mxCell>
        <mxCell id="OUyjQR1rdF7uxZgqNvzY-437" value="" style="rounded=0;whiteSpace=wrap;html=1;" vertex="1" parent="OUyjQR1rdF7uxZgqNvzY-436">
          <mxGeometry width="14.671604682482126" height="30.660661377156465" as="geometry" />
        </mxCell>
        <mxCell id="OUyjQR1rdF7uxZgqNvzY-438" value="" style="triangle;whiteSpace=wrap;html=1;rotation=-90;" vertex="1" parent="OUyjQR1rdF7uxZgqNvzY-436">
          <mxGeometry x="3.6679011706205316" y="22.995496032867347" width="7.335802341241063" height="7.665165344289116" as="geometry" />
        </mxCell>
        <mxCell id="OUyjQR1rdF7uxZgqNvzY-439" value="" style="endArrow=blockThin;html=1;rounded=0;entryX=0;entryY=1;entryDx=0;entryDy=0;exitX=1;exitY=0.25;exitDx=0;exitDy=0;endFill=1;endSize=1;" edge="1" parent="1" source="OUyjQR1rdF7uxZgqNvzY-437" target="OUyjQR1rdF7uxZgqNvzY-428">
          <mxGeometry width="50" height="50" relative="1" as="geometry">
            <mxPoint x="492.18962809489284" y="371.0416534428913" as="sourcePoint" />
            <mxPoint x="528.8686398010979" y="332.71582672144575" as="targetPoint" />
            <Array as="points">
              <mxPoint x="470.1822210711695" y="359.5439054264576" />
            </Array>
          </mxGeometry>
        </mxCell>
        <mxCell id="OUyjQR1rdF7uxZgqNvzY-440" value="" style="ellipse;whiteSpace=wrap;html=1;aspect=fixed;fillColor=#F0F0F0;" vertex="1" parent="1">
          <mxGeometry x="473.8501222417901" y="355.7113227543131" width="20.84912244352723" height="20.84912244352723" as="geometry" />
        </mxCell>
        <mxCell id="OUyjQR1rdF7uxZgqNvzY-441" value="&lt;font style=&quot;font-size: 14px;&quot;&gt;$$\geq$$&lt;/font&gt;" style="text;html=1;align=center;verticalAlign=middle;whiteSpace=wrap;rounded=0;" vertex="1" parent="1">
          <mxGeometry x="478.41832642701746" y="359.50463426252975" width="11.003703511861593" height="11.497748016433675" as="geometry" />
        </mxCell>
        <mxCell id="OUyjQR1rdF7uxZgqNvzY-442" value="" style="endArrow=blockThin;html=1;rounded=0;exitX=1;exitY=0.75;exitDx=0;exitDy=0;entryX=0;entryY=0;entryDx=0;entryDy=0;endFill=1;endSize=1;" edge="1" parent="1" source="OUyjQR1rdF7uxZgqNvzY-425" target="OUyjQR1rdF7uxZgqNvzY-440">
          <mxGeometry width="50" height="50" relative="1" as="geometry">
            <mxPoint x="514.1970351186159" y="355.7113227543131" as="sourcePoint" />
            <mxPoint x="550.8760468248212" y="317.3854960328673" as="targetPoint" />
            <Array as="points">
              <mxPoint x="470.1822210711695" y="321.21807870501186" />
            </Array>
          </mxGeometry>
        </mxCell>
        <mxCell id="OUyjQR1rdF7uxZgqNvzY-443" value="" style="ellipse;whiteSpace=wrap;html=1;aspect=fixed;fillColor=#000000;" vertex="1" parent="1">
          <mxGeometry x="437.1711105355848" y="298.22258267214454" width="3.474853740587872" height="3.474853740587872" as="geometry" />
        </mxCell>
        <mxCell id="OUyjQR1rdF7uxZgqNvzY-444" value="" style="ellipse;whiteSpace=wrap;html=1;aspect=fixed;fillColor=#000000;" vertex="1" parent="1">
          <mxGeometry x="437.1711105355848" y="378.7068187871804" width="3.474853740587872" height="3.474853740587872" as="geometry" />
        </mxCell>
        <mxCell id="OUyjQR1rdF7uxZgqNvzY-445" style="edgeStyle=orthogonalEdgeStyle;rounded=0;orthogonalLoop=1;jettySize=auto;html=1;exitX=1;exitY=0;exitDx=0;exitDy=0;entryX=0;entryY=0.25;entryDx=0;entryDy=0;endArrow=blockThin;endFill=1;endSize=1;" edge="1" parent="1" source="OUyjQR1rdF7uxZgqNvzY-446" target="OUyjQR1rdF7uxZgqNvzY-451">
          <mxGeometry relative="1" as="geometry" />
        </mxCell>
        <mxCell id="OUyjQR1rdF7uxZgqNvzY-446" value="" style="ellipse;whiteSpace=wrap;html=1;aspect=fixed;fillColor=#F0F0F0;" vertex="1" parent="1">
          <mxGeometry x="418.83160468248224" y="409.3674801643366" width="20.84912244352723" height="20.84912244352723" as="geometry" />
        </mxCell>
        <mxCell id="OUyjQR1rdF7uxZgqNvzY-447" value="" style="endArrow=blockThin;html=1;rounded=0;exitX=1;exitY=0.5;exitDx=0;exitDy=0;entryX=0;entryY=0;entryDx=0;entryDy=0;endFill=1;endSize=1;" edge="1" parent="1" target="OUyjQR1rdF7uxZgqNvzY-446">
          <mxGeometry width="50" height="50" relative="1" as="geometry">
            <mxPoint x="404.16" y="401.7023148200477" as="sourcePoint" />
            <mxPoint x="477.5180234124106" y="378.7068187871804" as="targetPoint" />
            <Array as="points">
              <mxPoint x="418.83160468248224" y="401.7023148200477" />
            </Array>
          </mxGeometry>
        </mxCell>
        <mxCell id="OUyjQR1rdF7uxZgqNvzY-448" value="" style="endArrow=blockThin;html=1;rounded=0;entryX=0;entryY=1;entryDx=0;entryDy=0;exitX=1;exitY=0.5;exitDx=0;exitDy=0;endFill=1;endSize=1;" edge="1" parent="1" target="OUyjQR1rdF7uxZgqNvzY-446">
          <mxGeometry width="50" height="50" relative="1" as="geometry">
            <mxPoint x="404.16" y="440.0281415414935" as="sourcePoint" />
            <mxPoint x="433.5032093649642" y="447.69330688578236" as="targetPoint" />
            <Array as="points">
              <mxPoint x="418.83160468248224" y="440.0281415414935" />
            </Array>
          </mxGeometry>
        </mxCell>
        <mxCell id="OUyjQR1rdF7uxZgqNvzY-449" value="&lt;font style=&quot;font-size: 14px;&quot;&gt;$$\geq$$&lt;/font&gt;" style="text;html=1;align=center;verticalAlign=middle;whiteSpace=wrap;rounded=0;" vertex="1" parent="1">
          <mxGeometry x="423.3998088677096" y="413.1607916725537" width="11.003703511861593" height="11.497748016433675" as="geometry" />
        </mxCell>
        <mxCell id="OUyjQR1rdF7uxZgqNvzY-450" value="" style="group" vertex="1" connectable="0" parent="1">
          <mxGeometry x="448.1748140474462" y="405.5348974921923" width="14.671604682482126" height="30.660661377156465" as="geometry" />
        </mxCell>
        <mxCell id="OUyjQR1rdF7uxZgqNvzY-451" value="" style="rounded=0;whiteSpace=wrap;html=1;" vertex="1" parent="OUyjQR1rdF7uxZgqNvzY-450">
          <mxGeometry width="14.671604682482126" height="30.660661377156465" as="geometry" />
        </mxCell>
        <mxCell id="OUyjQR1rdF7uxZgqNvzY-452" value="" style="triangle;whiteSpace=wrap;html=1;rotation=-90;" vertex="1" parent="OUyjQR1rdF7uxZgqNvzY-450">
          <mxGeometry x="3.6679011706205316" y="22.995496032867347" width="7.335802341241063" height="7.665165344289116" as="geometry" />
        </mxCell>
        <mxCell id="OUyjQR1rdF7uxZgqNvzY-453" value="" style="ellipse;whiteSpace=wrap;html=1;aspect=fixed;fillColor=#F0F0F0;" vertex="1" parent="1">
          <mxGeometry x="473.8501222417901" y="409.3674801643366" width="20.84912244352723" height="20.84912244352723" as="geometry" />
        </mxCell>
        <mxCell id="OUyjQR1rdF7uxZgqNvzY-454" value="&lt;font style=&quot;font-size: 14px;&quot;&gt;$$\geq$$&lt;/font&gt;" style="text;html=1;align=center;verticalAlign=middle;whiteSpace=wrap;rounded=0;" vertex="1" parent="1">
          <mxGeometry x="478.41832642701746" y="413.1607916725537" width="11.003703511861593" height="11.497748016433675" as="geometry" />
        </mxCell>
        <mxCell id="OUyjQR1rdF7uxZgqNvzY-455" style="edgeStyle=orthogonalEdgeStyle;rounded=0;orthogonalLoop=1;jettySize=auto;html=1;exitX=1;exitY=0.25;exitDx=0;exitDy=0;entryX=0;entryY=0;entryDx=0;entryDy=0;endArrow=blockThin;endFill=1;endSize=1;" edge="1" parent="1" source="OUyjQR1rdF7uxZgqNvzY-451" target="OUyjQR1rdF7uxZgqNvzY-453">
          <mxGeometry relative="1" as="geometry">
            <mxPoint x="470.1822210711695" y="413.2000628364814" as="targetPoint" />
          </mxGeometry>
        </mxCell>
        <mxCell id="OUyjQR1rdF7uxZgqNvzY-456" value="" style="endArrow=blockThin;html=1;rounded=0;exitX=1;exitY=0.75;exitDx=0;exitDy=0;endFill=1;endSize=1;" edge="1" parent="1" source="OUyjQR1rdF7uxZgqNvzY-451">
          <mxGeometry width="50" height="50" relative="1" as="geometry">
            <mxPoint x="514.1970351186159" y="463.0236375743606" as="sourcePoint" />
            <mxPoint x="478.8518056562727" y="447.27999999999986" as="targetPoint" />
            <Array as="points">
              <mxPoint x="470.1822210711695" y="428.5303935250596" />
            </Array>
          </mxGeometry>
        </mxCell>
        <mxCell id="OUyjQR1rdF7uxZgqNvzY-457" value="" style="ellipse;whiteSpace=wrap;html=1;aspect=fixed;fillColor=#000000;" vertex="1" parent="1">
          <mxGeometry x="437.1711105355848" y="405.5348974921923" width="3.474853740587872" height="3.474853740587872" as="geometry" />
        </mxCell>
        <mxCell id="OUyjQR1rdF7uxZgqNvzY-458" value="" style="endArrow=none;dashed=1;html=1;dashPattern=1 3;strokeWidth=2;rounded=0;" edge="1" parent="1">
          <mxGeometry width="50" height="50" relative="1" as="geometry">
            <mxPoint x="482.1570485859317" y="395.0963710786183" as="sourcePoint" />
            <mxPoint x="500.82999999999987" y="395.0700815425329" as="targetPoint" />
          </mxGeometry>
        </mxCell>
        <mxCell id="OUyjQR1rdF7uxZgqNvzY-459" value="" style="endArrow=none;dashed=1;html=1;dashPattern=1 3;strokeWidth=2;rounded=0;" edge="1" parent="1">
          <mxGeometry width="50" height="50" relative="1" as="geometry">
            <mxPoint x="455.28654097171847" y="385.46466187499993" as="sourcePoint" />
            <mxPoint x="455.28654097171847" y="403.62034937500005" as="targetPoint" />
          </mxGeometry>
        </mxCell>
        <mxCell id="OUyjQR1rdF7uxZgqNvzY-460" value="" style="endArrow=blockThin;html=1;rounded=0;exitX=1;exitY=1;exitDx=0;exitDy=0;entryX=-0.017;entryY=0.696;entryDx=0;entryDy=0;entryPerimeter=0;endSize=1;endFill=1;" edge="1" parent="1" source="OUyjQR1rdF7uxZgqNvzY-420" target="OUyjQR1rdF7uxZgqNvzY-425">
          <mxGeometry width="50" height="50" relative="1" as="geometry">
            <mxPoint x="437.16" y="324.39" as="sourcePoint" />
            <mxPoint x="487.16" y="304.39" as="targetPoint" />
          </mxGeometry>
        </mxCell>
        <mxCell id="OUyjQR1rdF7uxZgqNvzY-461" value="" style="endArrow=blockThin;html=1;rounded=0;exitX=1;exitY=1;exitDx=0;exitDy=0;entryX=-0.017;entryY=0.696;entryDx=0;entryDy=0;entryPerimeter=0;endSize=1;endFill=1;" edge="1" parent="1">
          <mxGeometry width="50" height="50" relative="1" as="geometry">
            <mxPoint x="436.17" y="374.4799999999999" as="sourcePoint" />
            <mxPoint x="448.17" y="374.4799999999999" as="targetPoint" />
          </mxGeometry>
        </mxCell>
        <mxCell id="OUyjQR1rdF7uxZgqNvzY-462" value="" style="endArrow=blockThin;html=1;rounded=0;exitX=1;exitY=1;exitDx=0;exitDy=0;entryX=-0.017;entryY=0.696;entryDx=0;entryDy=0;entryPerimeter=0;endSize=1;endFill=1;" edge="1" parent="1">
          <mxGeometry width="50" height="50" relative="1" as="geometry">
            <mxPoint x="436.17" y="427.4799999999999" as="sourcePoint" />
            <mxPoint x="448.17" y="427.4799999999999" as="targetPoint" />
          </mxGeometry>
        </mxCell>
        <mxCell id="OUyjQR1rdF7uxZgqNvzY-463" value="" style="endArrow=blockThin;html=1;rounded=0;exitX=1.029;exitY=0.707;exitDx=0;exitDy=0;entryX=0;entryY=1;entryDx=0;entryDy=0;endSize=1;endFill=1;exitPerimeter=0;" edge="1" parent="1" source="OUyjQR1rdF7uxZgqNvzY-437" target="OUyjQR1rdF7uxZgqNvzY-440">
          <mxGeometry width="50" height="50" relative="1" as="geometry">
            <mxPoint x="463.17" y="374.4799999999999" as="sourcePoint" />
            <mxPoint x="475.17" y="374.4799999999999" as="targetPoint" />
          </mxGeometry>
        </mxCell>
        <mxCell id="OUyjQR1rdF7uxZgqNvzY-464" style="edgeStyle=orthogonalEdgeStyle;rounded=0;orthogonalLoop=1;jettySize=auto;html=1;exitX=1;exitY=0.5;exitDx=0;exitDy=0;endArrow=blockThin;endFill=1;curved=0;endSize=1;" edge="1" parent="1">
          <mxGeometry relative="1" as="geometry">
            <mxPoint x="494.7" y="366.0200000000001" as="sourcePoint" />
            <mxPoint x="506.7" y="366.0200000000001" as="targetPoint" />
          </mxGeometry>
        </mxCell>
        <mxCell id="OUyjQR1rdF7uxZgqNvzY-465" style="edgeStyle=orthogonalEdgeStyle;rounded=0;orthogonalLoop=1;jettySize=auto;html=1;exitX=1;exitY=0.5;exitDx=0;exitDy=0;endArrow=blockThin;endFill=1;curved=0;endSize=1;" edge="1" parent="1">
          <mxGeometry relative="1" as="geometry">
            <mxPoint x="494.7" y="420.7500000000001" as="sourcePoint" />
            <mxPoint x="506.7" y="420.7500000000001" as="targetPoint" />
          </mxGeometry>
        </mxCell>
        <mxCell id="OUyjQR1rdF7uxZgqNvzY-466" value="&lt;font style=&quot;font-size: 8px;&quot;&gt;$$\text{en}$$&lt;/font&gt;" style="text;html=1;align=center;verticalAlign=middle;whiteSpace=wrap;rounded=0;" vertex="1" parent="1">
          <mxGeometry x="418.8300000000001" y="264.08000000000004" width="10.52" height="7.54" as="geometry" />
        </mxCell>
        <mxCell id="OUyjQR1rdF7uxZgqNvzY-477" value="&lt;font style=&quot;font-size: 8px;&quot;&gt;$$\text{MrgnPipeline}$$&lt;/font&gt;" style="text;html=1;align=center;verticalAlign=middle;whiteSpace=wrap;rounded=0;" vertex="1" parent="1">
          <mxGeometry x="459.18" y="454.94999999999993" width="35.52" height="16.44" as="geometry" />
        </mxCell>
        <mxCell id="OUyjQR1rdF7uxZgqNvzY-478" value="" style="endArrow=block;html=1;rounded=0;entryX=0;entryY=0.5;entryDx=0;entryDy=0;endSize=1;endFill=1;strokeWidth=2;exitX=1;exitY=0.5;exitDx=0;exitDy=0;" edge="1" parent="1" source="OUyjQR1rdF7uxZgqNvzY-410" target="OUyjQR1rdF7uxZgqNvzY-416">
          <mxGeometry width="50" height="50" relative="1" as="geometry">
            <mxPoint x="325" y="366.82000000000005" as="sourcePoint" />
            <mxPoint x="462" y="366.82000000000005" as="targetPoint" />
          </mxGeometry>
        </mxCell>
        <mxCell id="OUyjQR1rdF7uxZgqNvzY-479" value="" style="endArrow=block;html=1;rounded=0;entryX=0.5;entryY=0;entryDx=0;entryDy=0;endSize=1;endFill=1;strokeColor=#006EAF;exitX=1;exitY=0.952;exitDx=0;exitDy=0;exitPerimeter=0;" edge="1" parent="1" source="OUyjQR1rdF7uxZgqNvzY-88" target="OUyjQR1rdF7uxZgqNvzY-67">
          <mxGeometry width="50" height="50" relative="1" as="geometry">
            <mxPoint x="270" y="180" as="sourcePoint" />
            <mxPoint x="300" y="591" as="targetPoint" />
            <Array as="points" />
          </mxGeometry>
        </mxCell>
        <mxCell id="OUyjQR1rdF7uxZgqNvzY-480" value="" style="endArrow=block;html=1;rounded=0;exitX=1.042;exitY=0.413;exitDx=0;exitDy=0;entryX=0.204;entryY=-0.001;entryDx=0;entryDy=0;endSize=1;endFill=1;strokeColor=#006EAF;exitPerimeter=0;entryPerimeter=0;" edge="1" parent="1" source="OUyjQR1rdF7uxZgqNvzY-88" target="OUyjQR1rdF7uxZgqNvzY-416">
          <mxGeometry width="50" height="50" relative="1" as="geometry">
            <mxPoint x="422.4" y="165.5" as="sourcePoint" />
            <mxPoint x="423.4" y="299.5" as="targetPoint" />
            <Array as="points" />
          </mxGeometry>
        </mxCell>
        <mxCell id="OUyjQR1rdF7uxZgqNvzY-481" value="" style="endArrow=block;html=1;rounded=0;endSize=1;endFill=1;strokeWidth=2;exitX=1;exitY=0.5;exitDx=0;exitDy=0;" edge="1" parent="1">
          <mxGeometry width="50" height="50" relative="1" as="geometry">
            <mxPoint x="553.01" y="362.13" as="sourcePoint" />
            <mxPoint x="590" y="362" as="targetPoint" />
          </mxGeometry>
        </mxCell>
        <mxCell id="OUyjQR1rdF7uxZgqNvzY-482" value="" style="endArrow=block;html=1;rounded=0;endSize=1;endFill=1;strokeColor=#006EAF;" edge="1" parent="1">
          <mxGeometry width="50" height="50" relative="1" as="geometry">
            <mxPoint x="553.8800000000001" y="142.06000000000012" as="sourcePoint" />
            <mxPoint x="590" y="142" as="targetPoint" />
          </mxGeometry>
        </mxCell>
        <mxCell id="OUyjQR1rdF7uxZgqNvzY-483" value="&lt;font style=&quot;font-size: 8px;&quot;&gt;$$\text{Ready}$$&lt;/font&gt;" style="text;html=1;align=center;verticalAlign=middle;whiteSpace=wrap;rounded=0;rotation=0;" vertex="1" parent="1">
          <mxGeometry x="550" y="126.06" width="35.52" height="16.44" as="geometry" />
        </mxCell>
        <mxCell id="OUyjQR1rdF7uxZgqNvzY-484" value="&lt;font style=&quot;font-size: 8px;&quot;&gt;$$\text{Margin}$$&lt;/font&gt;" style="text;html=1;align=center;verticalAlign=middle;whiteSpace=wrap;rounded=0;rotation=0;" vertex="1" parent="1">
          <mxGeometry x="540.0049999999999" y="343.065" width="90.19" height="16.44" as="geometry" />
        </mxCell>
      </root>
    </mxGraphModel>
  </diagram>
</mxfile>
